999
Created from RPA-4 - Tool for Rocket Propulsion Analysis
999
(C) 2009-2022 RP Software+Engineering UG
999
https://www.rocket-propulsion.com
999
HyRoE project F
  0
SECTION
  2
HEADER
  9
$ACADVER
  1
AC1014
  9
$HANDSEED
  5
FFFF
  9
$MEASUREMENT
 70
1
  9
$MEASUREINIT 
 70
1
  9
$INSUNITS
 70
4
  9
$DIMSTYLE
  2
Standard
  9
$DIMUNIT
 70
2
  9
$DIMTXT
 40
2.500000
  9
$DIMASZ
 40
2.500000
  9
$DIMEXE
 40
1.250000
  9
$DIMEXO
 40
0.625000
  9
$DIMGAP
 40
0.625000
  0
ENDSEC
  0
SECTION
  2
TABLES
  0
TABLE
  2
VPORT
  5
101
100
AcDbSymbolTable
  0
VPORT
  5
102
100
AcDbSymbolTableRecord
100
AcDbViewportTableRecord
  2
*Active
 70
0
 10
0.000000
 20
0.000000
 11
384.617298
 21
71.035203
 12
192.308649
 22
35.517601
 13
0.000000
 23
0.000000
 14
10.000000
 24
10.000000
 15
10.000000
 25
10.000000
 16
0.000000
 26
0.000000
 36
1.000000
 17
0.000000
 27
0.000000
 37
0.000000
 40
71.035203
 41
1.927984
 42
50.000000
 43
0.000000
 44
0.000000
 50
0.000000
 51
0.000000
 71
1
 72
100.000000
 73
1
 74
3
 75
1
 76
1
 77
0
 78
0
281
0
 65
1
  0
ENDTAB
  0
TABLE
  2
LTYPE
  5
103
100
AcDbSymbolTable
 70
10
  0
LTYPE
  5
104
100
AcDbSymbolTableRecord
100
AcDbLinetypeTableRecord
  2
ByBlock
 70
0
  3

 72
65
 73
0
 40
0.000000
  0
LTYPE
  5
105
100
AcDbSymbolTableRecord
100
AcDbLinetypeTableRecord
  2
ByLayer
 70
0
  3

 72
65
 73
0
 40
0.000000
  0
LTYPE
  5
106
100
AcDbSymbolTableRecord
100
AcDbLinetypeTableRecord
  2
CONTINUOUS
 70
0
  3
Solid line
 72
65
 73
0
 40
0.000000
  0
LTYPE
  5
107
100
AcDbSymbolTableRecord
100
AcDbLinetypeTableRecord
  2
DOT
 70
0
  3
Dot . . . . . . . . . . . . . . . . . . . . . .
 72
65
 73
2
 40
6.350000
 49
0.000000
 74
0.000000
 49
-6.350000
 74
0.000000
  0
LTYPE
  5
108
100
AcDbSymbolTableRecord
100
AcDbLinetypeTableRecord
  2
DOT2
 70
0
  3
Dot (.5x) .....................................
 72
65
 73
2
 40
3.175000
 49
0.000000
 74
0.000000
 49
-3.175000
 74
0.000000
  0
LTYPE
  5
109
100
AcDbSymbolTableRecord
100
AcDbLinetypeTableRecord
  2
DOTX2
 70
0
  3
Dot (2x) .  .  .  .  .  .  .  .  .  .  .  .  .
 72
65
 73
2
 40
12.700000
 49
0.000000
 74
0.000000
 49
-12.700000
 74
0.000000
  0
LTYPE
  5
10A
100
AcDbSymbolTableRecord
100
AcDbLinetypeTableRecord
  2
DASHED
 70
0
  3
Dashed __ __ __ __ __ __ __ __ __ __ __ __ __ _
 72
65
 73
2
 40
19.050000
 49
12.700000
 74
0.000000
 49
-6.350000
 74
0.000000
  0
LTYPE
  5
10B
100
AcDbSymbolTableRecord
100
AcDbLinetypeTableRecord
  2
DASHED2
 70
0
  3
Dashed (.5x) _ _ _ _ _ _ _ _ _ _ _ _ _ _ _ _ _
 72
65
 73
2
 40
9.525000
 49
6.350000
 74
0.000000
 49
-3.175000
 74
0.000000
  0
LTYPE
  5
10C
100
AcDbSymbolTableRecord
100
AcDbLinetypeTableRecord
  2
DASHDOT
 70
0
  3
Dash dot __ . __ . __ . __ . __ . __ . __ . __
 72
65
 73
4
 40
25.400000
 49
12.700000
 74
0.000000
 49
-6.350000
 74
0.000000
 49
0.000000
 74
0.000000
 49
-6.350000
 74
0.000000
  0
LTYPE
  5
10D
100
AcDbSymbolTableRecord
100
AcDbLinetypeTableRecord
  2
DASHDOT2
 70
0
  3
Dash dot (.5x) _._._._._._._._._._._._._._._.
 72
65
 73
4
 40
12.700000
 49
6.350000
 74
0.000000
 49
-3.175000
 74
0.000000
 49
0.000000
 74
0.000000
 49
-3.175000
 74
0.000000
  0
LTYPE
  5
10E
100
AcDbSymbolTableRecord
100
AcDbLinetypeTableRecord
  2
DASHDOTX2
 70
0
  3
Dash dot (2x) ____  .  ____  .  ____  .  ___
 72
65
 73
4
 40
50.800000
 49
25.400000
 74
0.000000
 49
-12.700000
 74
0.000000
 49
0.000000
 74
0.000000
 49
-12.700000
 74
0.000000
  0
LTYPE
  5
10F
100
AcDbSymbolTableRecord
100
AcDbLinetypeTableRecord
  2
DIVIDE
 70
0
  3
Divide ____ . . ____ . . ____ . . ____ . . ____
 72
65
 73
6
 40
31.750000
 49
12.700000
 74
0.000000
 49
-6.350000
 74
0.000000
 49
0.000000
 74
0.000000
 49
-6.350000
 74
0.000000
 49
0.000000
 74
0.000000
 49
-6.350000
 74
0.000000
  0
LTYPE
  5
110
100
AcDbSymbolTableRecord
100
AcDbLinetypeTableRecord
  2
DIVIDEX2
 70
0
  3
Divide (2x) ________  .  .  ________  .  .  _
 72
65
 73
6
 40
63.500000
 49
25.400000
 74
0.000000
 49
-12.700000
 74
0.000000
 49
0.000000
 74
0.000000
 49
-12.700000
 74
0.000000
 49
0.000000
 74
0.000000
 49
-12.700000
 74
0.000000
  0
LTYPE
  5
111
100
AcDbSymbolTableRecord
100
AcDbLinetypeTableRecord
  2
CENTER
 70
0
  3
Center ____ _ ____ _ ____ _ ____ _ ____ _ ____
 72
65
 73
4
 40
50.800000
 49
31.750000
 74
0.000000
 49
-6.350000
 74
0.000000
 49
6.350000
 74
0.000000
 49
-6.350000
 74
0.000000
  0
LTYPE
  5
112
100
AcDbSymbolTableRecord
100
AcDbLinetypeTableRecord
  2
CENTER2
 70
0
  3
Center (.5x) ___ _ ___ _ ___ _ ___ _ ___ _ ___
 72
65
 73
4
 40
28.575000
 49
19.050000
 74
0.000000
 49
-3.175000
 74
0.000000
 49
3.175000
 74
0.000000
 49
-3.175000
 74
0.000000
  0
LTYPE
  5
113
100
AcDbSymbolTableRecord
100
AcDbLinetypeTableRecord
  2
CENTERX2
 70
0
  3
Center (2x) ________  __  ________  __  _____
 72
65
 73
4
 40
101.600000
 49
63.500000
 74
0.000000
 49
-12.700000
 74
0.000000
 49
12.700000
 74
0.000000
 49
-12.700000
 74
0.000000
  0
LTYPE
  5
114
100
AcDbSymbolTableRecord
100
AcDbLinetypeTableRecord
  2
BORDER
 70
0
  3
Border __ __ . __ __ . __ __ . __ __ . __ __ .
 72
65
 73
6
 40
44.450000
 49
12.700000
 74
0.000000
 49
-6.350000
 74
0.000000
 49
12.700000
 74
0.000000
 49
-6.350000
 74
0.000000
 49
0.000000
 74
0.000000
 49
-6.350000
 74
0.000000
  0
LTYPE
  5
115
100
AcDbSymbolTableRecord
100
AcDbLinetypeTableRecord
  2
BORDER2
 70
0
  3
Border (.5x) __.__.__.__.__.__.__.__.__.__.__.
 72
65
 73
6
 40
22.225000
 49
6.350000
 74
0.000000
 49
-3.175000
 74
0.000000
 49
6.350000
 74
0.000000
 49
-3.175000
 74
0.000000
 49
0.000000
 74
0.000000
 49
-3.175000
 74
0.000000
  0
LTYPE
  5
116
100
AcDbSymbolTableRecord
100
AcDbLinetypeTableRecord
  2
BORDERX2
 70
0
  3
Border (2x) ____  ____  .  ____  ____  .  ___
 72
65
 73
6
 40
88.900000
 49
25.400000
 74
0.000000
 49
-12.700000
 74
0.000000
 49
25.400000
 74
0.000000
 49
-12.700000
 74
0.000000
 49
0.000000
 74
0.000000
 49
-12.700000
 74
0.000000
  0
ENDTAB
  0
TABLE
  2
LAYER
  5
117
100
AcDbSymbolTable
  0
LAYER
  5
118
100
AcDbSymbolTableRecord
100
AcDbLayerTableRecord
  2
0
 70
0
 62
1
  6
Continuous
390
F
  0
LAYER
  5
119
100
AcDbSymbolTableRecord
100
AcDbLayerTableRecord
  2
Dimensions
 70
0
 62
5
  6
Continuous
390
F
  0
ENDTAB
  0
TABLE
  2
STYLE
  5
11A
100
AcDbSymbolTable
  0
STYLE
  5
11B
100
AcDbSymbolTableRecord
100
AcDbTextStyleTableRecord
  2
Standard
  3
txt
 70
0
 71
0
 40
0.000000
 41
0.750000
 42
0.000000
 50
0.000000
  0
ENDTAB
  0
TABLE
  2
VIEW
  5
11C
100
AcDbSymbolTable
 70
0
 40
384.617298
 41
71.035203
  0
ENDTAB
  0
TABLE
  2
UCS
  5
11D
100
AcDbSymbolTable
 70
0
  0
ENDTAB
  0
TABLE
  2
APPID
  5
9
100
AcDbSymbolTable
 70
1
  0
APPID
  5
12
100
AcDbSymbolTableRecord
100
AcDbRegAppTableRecord
  2
ACAD
 70
0
  0
ENDTAB
  0
TABLE
  2
DIMSTYLE
  5
A
100
AcDbSymbolTable
 70
1
 71
0
  0
DIMSTYLE
105
27
100
AcDbSymbolTableRecord
100
AcDbDimStyleTableRecord
 70
0
  2
Standard
176
5
 46
0.000000
177
5
 44
1.250000
 42
0.625000
  6
ClosedFilled
  7
ClosedFilled
 41
2.500000
340
0
178
5
140
2.500000
 77
1
147
0.625000
  0
ENDTAB
  0
TABLE
  2
BLOCK_RECORD
  5
11E
100
AcDbSymbolTable
 70
1
  0
BLOCK_RECORD
  5
11F
100
AcDbSymbolTableRecord
100
AcDbBlockTableRecord
  2
*Model_Space
340
22
  0
BLOCK_RECORD
  5
120
100
AcDbSymbolTableRecord
100
AcDbBlockTableRecord
  2
*Paper_Space
340
1E
  0
BLOCK_RECORD
  5
121
100
AcDbSymbolTableRecord
100
AcDbBlockTableRecord
  2
*Paper_Space0
340
26
  0
BLOCK_RECORD
  5
122
100
AcDbSymbolTableRecord
100
AcDbBlockTableRecord
  2
CHAMBER_COUNTOR
340
26
  0
ENDTAB
  0
ENDSEC
  0
SECTION
  2
BLOCKS
  0
BLOCK
  5
123
100
AcDbEntity
  8
0
100
AcDbBlockBegin
  2
*Model_Space
 70
1
 10
0.000000
 20
0.000000
  3
*Model_Space
  0
ENDBLK
  5
124
100
AcDbEntity
  8
0
100
AcDbBlockEnd
  0
BLOCK
  5
125
100
AcDbEntity
  8
0
100
AcDbBlockBegin
  2
*Paper_Space
 70
1
 10
0.000000
 20
0.000000
  3
*Paper_Space
  0
ENDBLK
  5
126
100
AcDbEntity
  8
0
100
AcDbBlockEnd
  0
BLOCK
  5
127
100
AcDbEntity
  8
0
100
AcDbBlockBegin
  2
*Paper_Space0
 70
1
 10
0.000000
 20
0.000000
  3
*Paper_Space0
  0
ENDBLK
  5
128
100
AcDbEntity
  8
0
100
AcDbBlockEnd
  0
BLOCK
  5
129
100
AcDbEntity
  8
0
100
AcDbBlockBegin
  2
CHAMBER_COUNTOR
 70
1
 10
0.000000
 20
0.000000
  3
CHAMBER_COUNTOR
  0
LINE
  5
12A
100
AcDbEntity
100
AcDbLine
  8
0
 62
256
  6
ByLayer
370
-1
 10
0.000000
 20
32.422986
 30
0.000000
 11
212.540644
 21
32.422986
 31
0.000000
  0
LINE
  5
12B
100
AcDbEntity
100
AcDbLine
  8
0
 62
256
  6
ByLayer
370
-1
 10
0.000000
 20
-32.422986
 30
0.000000
 11
212.540644
 21
-32.422986
 31
0.000000
  0
ARC
  5
12C
100
AcDbEntity
100
AcDbCircle
  8
0
 62
256
  6
ByLayer
370
-1
 10
212.540644
 20
-155.312750
 40
187.735735
100
AcDbArc
 50
70.000000
 51
90.000000
  0
ARC
  5
12D
100
AcDbEntity
100
AcDbCircle
  8
0
 62
256
  6
ByLayer
370
-1
 10
212.540644
 20
155.312750
 40
187.735735
100
AcDbArc
 50
270.000000
 51
290.000000
  0
LINE
  5
12E
100
AcDbEntity
100
AcDbLine
  8
0
 62
256
  6
ByLayer
370
-1
 10
276.750047
 20
21.101136
 30
0.000000
 11
290.081416
 21
16.248914
 31
0.000000
  0
LINE
  5
12F
100
AcDbEntity
100
AcDbLine
  8
0
 62
256
  6
ByLayer
370
-1
 10
276.750047
 20
-21.101136
 30
0.000000
 11
290.081416
 21
-16.248914
 31
0.000000
  0
ARC
  5
130
100
AcDbEntity
100
AcDbCircle
  8
0
 62
256
  6
ByLayer
370
-1
 10
300.000000
 20
43.500000
 40
29.000000
100
AcDbArc
 50
250.000000
 51
270.000000
  0
ARC
  5
131
100
AcDbEntity
100
AcDbCircle
  8
0
 62
256
  6
ByLayer
370
-1
 10
300.000000
 20
-43.500000
 40
29.000000
100
AcDbArc
 50
90.000000
 51
110.000000
  0
DIMENSION
  5
132
100
AcDbEntity
100
AcDbDimension
  8
Dimensions
 70
32
 62
256
  1
D64.8460
 10
-10.000000
 20
32.422986
 11
-12.000000
 21
0.000000
 53
90.000000
100
AcDbAlignedDimension
 13
0.000000
 23
-32.422986
 14
0.000000
 24
32.422986
 50
90.000000
100
AcDbRotatedDimension
  0
DIMENSION
  5
133
100
AcDbEntity
100
AcDbDimension
  8
Dimensions
 70
32
 62
256
  1
D29.0000
 10
394.617298
 20
14.500000
 11
392.617298
 21
0.000000
 53
90.000000
100
AcDbAlignedDimension
 13
300.000000
 23
-14.500000
 14
300.000000
 24
14.500000
 50
90.000000
100
AcDbRotatedDimension
  0
DIMENSION
  5
134
100
AcDbEntity
100
AcDbDimension
  8
Dimensions
 70
32
 62
256
 10
0.000000
 20
-45.517601
 11
106.270322
 21
-42.517601
100
AcDbAlignedDimension
 13
0.000000
 23
-32.422986
 14
212.540644
 24
-32.422986
 50
0.000000
100
AcDbRotatedDimension
  0
DIMENSION
  5
135
100
AcDbEntity
100
AcDbDimension
  8
Dimensions
 70
32
 62
256
 10
0.000000
 20
-55.517601
 11
150.000000
 21
-52.517601
100
AcDbAlignedDimension
 13
0.000000
 23
-32.422986
 14
300.000000
 24
-14.500000
 50
0.000000
100
AcDbRotatedDimension
  0
DIMENSION
  5
136
100
AcDbEntity
100
AcDbDimension
  8
Dimensions
 70
32
 62
256
 10
0.000000
 20
-65.517601
 11
192.308649
 21
-62.517601
100
AcDbAlignedDimension
 13
0.000000
 23
-32.422986
 14
384.617298
 24
-35.517601
 50
0.000000
100
AcDbRotatedDimension
  0
DIMENSION
  5
137
100
AcDbEntity
100
AcDbDimension
  8
Dimensions
 70
4
 62
256
  1
R187.7357
 10
212.540644
 20
-155.312750
 11
209.953322
 21
44.404908
100
AcDbRadialDimension
 15
213.398454
 25
32.421026
  0
DIMENSION
  5
138
100
AcDbEntity
100
AcDbDimension
  8
Dimensions
 70
4
 62
256
  1
R29.0000
 10
300.000000
 20
43.500000
 11
296.335544
 21
7.484383
100
AcDbRadialDimension
 15
299.867492
 25
14.500303
  0
DIMENSION
  5
139
100
AcDbEntity
100
AcDbDimension
  8
Dimensions
 70
2
 62
256
 10
290.081416
 20
0.000000
 11
244.327061
 21
15.825852
100
AcDb2LineAngularDimension
 13
290.081416
 23
16.248914
 14
276.750047
 24
21.101136
 15
276.750047
 25
0.000000
 16
244.327061
 26
15.825852
  0
LWPOLYLINE
  5
13A
100
AcDbEntity
100
AcDbPolyline
  8
0
 62
256
  6
ByLayer
370
-1
 70
0
 43
0.000000
 90
200
 10
300.000000
 20
14.500000
 10
300.004252
 20
14.500001
 10
300.008504
 20
14.500005
 10
300.012756
 20
14.500011
 10
300.017009
 20
14.500020
 10
300.021261
 20
14.500031
 10
300.025513
 20
14.500045
 10
300.029765
 20
14.500061
 10
300.034017
 20
14.500080
 10
300.038269
 20
14.500101
 10
300.042521
 20
14.500125
 10
300.063782
 20
14.500281
 10
300.085043
 20
14.500499
 10
300.106303
 20
14.500779
 10
300.127564
 20
14.501122
 10
300.148824
 20
14.501528
 10
300.170085
 20
14.501995
 10
300.191346
 20
14.502525
 10
300.212606
 20
14.503118
 10
300.233867
 20
14.503773
 10
300.255128
 20
14.504490
 10
300.276388
 20
14.505270
 10
300.297649
 20
14.506113
 10
300.318909
 20
14.507017
 10
300.340170
 20
14.507985
 10
300.361431
 20
14.509015
 10
300.403952
 20
14.511262
 10
300.446473
 20
14.513761
 10
300.488994
 20
14.516510
 10
300.531516
 20
14.519510
 10
300.574037
 20
14.522761
 10
300.616558
 20
14.526264
 10
300.659079
 20
14.530020
 10
300.701601
 20
14.534028
 10
300.744122
 20
14.538289
 10
300.786643
 20
14.542803
 10
300.829164
 20
14.547571
 10
300.871686
 20
14.552593
 10
300.914207
 20
14.557871
 10
300.956728
 20
14.563403
 10
300.999250
 20
14.569192
 10
301.041771
 20
14.575238
 10
301.084292
 20
14.581541
 10
301.126813
 20
14.588101
 10
301.169335
 20
14.594921
 10
301.211856
 20
14.602000
 10
301.254377
 20
14.609339
 10
301.296898
 20
14.616939
 10
301.339420
 20
14.624801
 10
301.381941
 20
14.632926
 10
301.424462
 20
14.641315
 10
301.466983
 20
14.649968
 10
301.509505
 20
14.658886
 10
301.552026
 20
14.668071
 10
301.594547
 20
14.677524
 10
301.637068
 20
14.687245
 10
301.679590
 20
14.697236
 10
301.722111
 20
14.707498
 10
301.764632
 20
14.718032
 10
301.807153
 20
14.728839
 10
301.849675
 20
14.739921
 10
301.892196
 20
14.751279
 10
301.934717
 20
14.762914
 10
301.977238
 20
14.774828
 10
302.019760
 20
14.787021
 10
302.062281
 20
14.799424
 10
302.104802
 20
14.811988
 10
302.147323
 20
14.824345
 10
302.189845
 20
14.837337
 10
302.232366
 20
14.851726
 10
302.274887
 20
14.867331
 10
302.317408
 20
14.881940
 10
302.359930
 20
14.894816
 10
302.402451
 20
14.905639
 10
302.444972
 20
14.916947
 10
302.487493
 20
14.928740
 10
303.150173
 20
15.137443
 10
303.812854
 20
15.351681
 10
304.475534
 20
15.573427
 10
305.138214
 20
15.799268
 10
305.800894
 20
16.026555
 10
306.463574
 20
16.255906
 10
307.126254
 20
16.491331
 10
307.788934
 20
16.726775
 10
308.451614
 20
16.968981
 10
309.114294
 20
17.201208
 10
309.776974
 20
17.441313
 10
310.439654
 20
17.683440
 10
311.102334
 20
17.926526
 10
311.765014
 20
18.166322
 10
312.427694
 20
18.406295
 10
313.090374
 20
18.646223
 10
313.753054
 20
18.887184
 10
314.415734
 20
19.128616
 10
315.078414
 20
19.365726
 10
315.741094
 20
19.604170
 10
316.403775
 20
19.843676
 10
317.066455
 20
20.082121
 10
317.729135
 20
20.325349
 10
318.391815
 20
20.551976
 10
319.054495
 20
20.787045
 10
319.717175
 20
21.022410
 10
320.379855
 20
21.253913
 10
321.042535
 20
21.481000
 10
321.705215
 20
21.713266
 10
322.367895
 20
21.941391
 10
323.030575
 20
22.163572
 10
323.693255
 20
22.386292
 10
324.355935
 20
22.613277
 10
325.018615
 20
22.828790
 10
325.681295
 20
23.043996
 10
326.343975
 20
23.262410
 10
327.006655
 20
23.476171
 10
327.669335
 20
23.689293
 10
328.332015
 20
23.900674
 10
328.994695
 20
24.109733
 10
329.657376
 20
24.317281
 10
330.320056
 20
24.522267
 10
330.982736
 20
24.725136
 10
331.645416
 20
24.928862
 10
332.308096
 20
25.126858
 10
332.970776
 20
25.322202
 10
333.633456
 20
25.525636
 10
334.296136
 20
25.714371
 10
334.958816
 20
25.906064
 10
335.621496
 20
26.098780
 10
336.284176
 20
26.283607
 10
336.946856
 20
26.474244
 10
337.609536
 20
26.652131
 10
338.272216
 20
26.837653
 10
338.934896
 20
27.019717
 10
339.597576
 20
27.195056
 10
340.260256
 20
27.369603
 10
340.922936
 20
27.543357
 10
341.585616
 20
27.716316
 10
342.248296
 20
27.888481
 10
342.910977
 20
28.059853
 10
343.573657
 20
28.231676
 10
344.236337
 20
28.393744
 10
344.899017
 20
28.553137
 10
345.561697
 20
28.720935
 10
346.224377
 20
28.874838
 10
346.887057
 20
29.033232
 10
347.549737
 20
29.197264
 10
348.212417
 20
29.347888
 10
348.875097
 20
29.507428
 10
349.537777
 20
29.652777
 10
350.200457
 20
29.798540
 10
350.863137
 20
29.951061
 10
351.525817
 20
30.099308
 10
352.188497
 20
30.242527
 10
352.851177
 20
30.385155
 10
353.513857
 20
30.527199
 10
354.176537
 20
30.669916
 10
354.839217
 20
30.799640
 10
355.501897
 20
30.935376
 10
356.164578
 20
31.067823
 10
356.827258
 20
31.207231
 10
357.489938
 20
31.334473
 10
358.152618
 20
31.465193
 10
358.815298
 20
31.603358
 10
359.477978
 20
31.726265
 10
360.140658
 20
31.847859
 10
360.803338
 20
31.969055
 10
361.466018
 20
32.089854
 10
362.128698
 20
32.210265
 10
362.791378
 20
32.330297
 10
363.454058
 20
32.449958
 10
364.116738
 20
32.569257
 10
364.779418
 20
32.689098
 10
365.442098
 20
32.794301
 10
366.104778
 20
32.912067
 10
366.767458
 20
33.017064
 10
367.430138
 20
33.133864
 10
368.092818
 20
33.240266
 10
368.755498
 20
33.344129
 10
369.418179
 20
33.447791
 10
370.080859
 20
33.551242
 10
370.743539
 20
33.654493
 10
371.406219
 20
33.757552
 10
372.068899
 20
33.861910
 10
372.731579
 20
33.956882
 10
373.394259
 20
34.053948
 10
374.056939
 20
34.150488
 10
374.719619
 20
34.244590
 10
375.382299
 20
34.344154
 10
376.044979
 20
34.433893
 10
376.707659
 20
34.524100
 10
377.370339
 20
34.613714
 10
378.033019
 20
34.703846
 10
378.695699
 20
34.794491
 10
379.358379
 20
34.874344
 10
380.021059
 20
34.962605
 10
380.683739
 20
35.044100
 10
381.346419
 20
35.131717
 10
382.009100
 20
35.209614
 10
382.671780
 20
35.287335
 10
383.334460
 20
35.372734
 10
383.997140
 20
35.443290
 10
384.617298
 20
35.517614
  0
LWPOLYLINE
  5
13B
100
AcDbEntity
100
AcDbPolyline
  8
0
 62
256
  6
ByLayer
370
-1
 70
0
 43
0.000000
 90
200
 10
300.000000
 20
-14.500000
 10
300.004252
 20
-14.500001
 10
300.008504
 20
-14.500005
 10
300.012756
 20
-14.500011
 10
300.017009
 20
-14.500020
 10
300.021261
 20
-14.500031
 10
300.025513
 20
-14.500045
 10
300.029765
 20
-14.500061
 10
300.034017
 20
-14.500080
 10
300.038269
 20
-14.500101
 10
300.042521
 20
-14.500125
 10
300.063782
 20
-14.500281
 10
300.085043
 20
-14.500499
 10
300.106303
 20
-14.500779
 10
300.127564
 20
-14.501122
 10
300.148824
 20
-14.501528
 10
300.170085
 20
-14.501995
 10
300.191346
 20
-14.502525
 10
300.212606
 20
-14.503118
 10
300.233867
 20
-14.503773
 10
300.255128
 20
-14.504490
 10
300.276388
 20
-14.505270
 10
300.297649
 20
-14.506113
 10
300.318909
 20
-14.507017
 10
300.340170
 20
-14.507985
 10
300.361431
 20
-14.509015
 10
300.403952
 20
-14.511262
 10
300.446473
 20
-14.513761
 10
300.488994
 20
-14.516510
 10
300.531516
 20
-14.519510
 10
300.574037
 20
-14.522761
 10
300.616558
 20
-14.526264
 10
300.659079
 20
-14.530020
 10
300.701601
 20
-14.534028
 10
300.744122
 20
-14.538289
 10
300.786643
 20
-14.542803
 10
300.829164
 20
-14.547571
 10
300.871686
 20
-14.552593
 10
300.914207
 20
-14.557871
 10
300.956728
 20
-14.563403
 10
300.999250
 20
-14.569192
 10
301.041771
 20
-14.575238
 10
301.084292
 20
-14.581541
 10
301.126813
 20
-14.588101
 10
301.169335
 20
-14.594921
 10
301.211856
 20
-14.602000
 10
301.254377
 20
-14.609339
 10
301.296898
 20
-14.616939
 10
301.339420
 20
-14.624801
 10
301.381941
 20
-14.632926
 10
301.424462
 20
-14.641315
 10
301.466983
 20
-14.649968
 10
301.509505
 20
-14.658886
 10
301.552026
 20
-14.668071
 10
301.594547
 20
-14.677524
 10
301.637068
 20
-14.687245
 10
301.679590
 20
-14.697236
 10
301.722111
 20
-14.707498
 10
301.764632
 20
-14.718032
 10
301.807153
 20
-14.728839
 10
301.849675
 20
-14.739921
 10
301.892196
 20
-14.751279
 10
301.934717
 20
-14.762914
 10
301.977238
 20
-14.774828
 10
302.019760
 20
-14.787021
 10
302.062281
 20
-14.799424
 10
302.104802
 20
-14.811988
 10
302.147323
 20
-14.824345
 10
302.189845
 20
-14.837337
 10
302.232366
 20
-14.851726
 10
302.274887
 20
-14.867331
 10
302.317408
 20
-14.881940
 10
302.359930
 20
-14.894816
 10
302.402451
 20
-14.905639
 10
302.444972
 20
-14.916947
 10
302.487493
 20
-14.928740
 10
303.150173
 20
-15.137443
 10
303.812854
 20
-15.351681
 10
304.475534
 20
-15.573427
 10
305.138214
 20
-15.799268
 10
305.800894
 20
-16.026555
 10
306.463574
 20
-16.255906
 10
307.126254
 20
-16.491331
 10
307.788934
 20
-16.726775
 10
308.451614
 20
-16.968981
 10
309.114294
 20
-17.201208
 10
309.776974
 20
-17.441313
 10
310.439654
 20
-17.683440
 10
311.102334
 20
-17.926526
 10
311.765014
 20
-18.166322
 10
312.427694
 20
-18.406295
 10
313.090374
 20
-18.646223
 10
313.753054
 20
-18.887184
 10
314.415734
 20
-19.128616
 10
315.078414
 20
-19.365726
 10
315.741094
 20
-19.604170
 10
316.403775
 20
-19.843676
 10
317.066455
 20
-20.082121
 10
317.729135
 20
-20.325349
 10
318.391815
 20
-20.551976
 10
319.054495
 20
-20.787045
 10
319.717175
 20
-21.022410
 10
320.379855
 20
-21.253913
 10
321.042535
 20
-21.481000
 10
321.705215
 20
-21.713266
 10
322.367895
 20
-21.941391
 10
323.030575
 20
-22.163572
 10
323.693255
 20
-22.386292
 10
324.355935
 20
-22.613277
 10
325.018615
 20
-22.828790
 10
325.681295
 20
-23.043996
 10
326.343975
 20
-23.262410
 10
327.006655
 20
-23.476171
 10
327.669335
 20
-23.689293
 10
328.332015
 20
-23.900674
 10
328.994695
 20
-24.109733
 10
329.657376
 20
-24.317281
 10
330.320056
 20
-24.522267
 10
330.982736
 20
-24.725136
 10
331.645416
 20
-24.928862
 10
332.308096
 20
-25.126858
 10
332.970776
 20
-25.322202
 10
333.633456
 20
-25.525636
 10
334.296136
 20
-25.714371
 10
334.958816
 20
-25.906064
 10
335.621496
 20
-26.098780
 10
336.284176
 20
-26.283607
 10
336.946856
 20
-26.474244
 10
337.609536
 20
-26.652131
 10
338.272216
 20
-26.837653
 10
338.934896
 20
-27.019717
 10
339.597576
 20
-27.195056
 10
340.260256
 20
-27.369603
 10
340.922936
 20
-27.543357
 10
341.585616
 20
-27.716316
 10
342.248296
 20
-27.888481
 10
342.910977
 20
-28.059853
 10
343.573657
 20
-28.231676
 10
344.236337
 20
-28.393744
 10
344.899017
 20
-28.553137
 10
345.561697
 20
-28.720935
 10
346.224377
 20
-28.874838
 10
346.887057
 20
-29.033232
 10
347.549737
 20
-29.197264
 10
348.212417
 20
-29.347888
 10
348.875097
 20
-29.507428
 10
349.537777
 20
-29.652777
 10
350.200457
 20
-29.798540
 10
350.863137
 20
-29.951061
 10
351.525817
 20
-30.099308
 10
352.188497
 20
-30.242527
 10
352.851177
 20
-30.385155
 10
353.513857
 20
-30.527199
 10
354.176537
 20
-30.669916
 10
354.839217
 20
-30.799640
 10
355.501897
 20
-30.935376
 10
356.164578
 20
-31.067823
 10
356.827258
 20
-31.207231
 10
357.489938
 20
-31.334473
 10
358.152618
 20
-31.465193
 10
358.815298
 20
-31.603358
 10
359.477978
 20
-31.726265
 10
360.140658
 20
-31.847859
 10
360.803338
 20
-31.969055
 10
361.466018
 20
-32.089854
 10
362.128698
 20
-32.210265
 10
362.791378
 20
-32.330297
 10
363.454058
 20
-32.449958
 10
364.116738
 20
-32.569257
 10
364.779418
 20
-32.689098
 10
365.442098
 20
-32.794301
 10
366.104778
 20
-32.912067
 10
366.767458
 20
-33.017064
 10
367.430138
 20
-33.133864
 10
368.092818
 20
-33.240266
 10
368.755498
 20
-33.344129
 10
369.418179
 20
-33.447791
 10
370.080859
 20
-33.551242
 10
370.743539
 20
-33.654493
 10
371.406219
 20
-33.757552
 10
372.068899
 20
-33.861910
 10
372.731579
 20
-33.956882
 10
373.394259
 20
-34.053948
 10
374.056939
 20
-34.150488
 10
374.719619
 20
-34.244590
 10
375.382299
 20
-34.344154
 10
376.044979
 20
-34.433893
 10
376.707659
 20
-34.524100
 10
377.370339
 20
-34.613714
 10
378.033019
 20
-34.703846
 10
378.695699
 20
-34.794491
 10
379.358379
 20
-34.874344
 10
380.021059
 20
-34.962605
 10
380.683739
 20
-35.044100
 10
381.346419
 20
-35.131717
 10
382.009100
 20
-35.209614
 10
382.671780
 20
-35.287335
 10
383.334460
 20
-35.372734
 10
383.997140
 20
-35.443290
 10
384.617298
 20
-35.517614
  0
DIMENSION
  5
13C
100
AcDbEntity
100
AcDbDimension
  8
Dimensions
 70
32
 62
256
  1
D71.0352
 10
404.617298
 20
0.000000
 11
402.617298
 21
0.000000
 53
90.000000
100
AcDbAlignedDimension
 13
384.617298
 23
-35.517601
 14
384.617298
 24
35.517601
 50
90.000000
100
AcDbRotatedDimension
  0
LINE
  5
13D
100
AcDbEntity
100
AcDbLine
  8
0
 62
3
  6
CENTER2
370
-1
 10
0.000000
 20
0.000000
 30
0.000000
 11
384.617298
 21
0.000000
 31
0.000000
  0
TEXT
  5
13E
100
AcDbEntity
  8
Dimensions
 62
3
  6
ByLayer
100
AcDbText
 10
0.000000
 20
-85.517601
 40
5.000000
  1
HyRoE project F
 50
0.000000
100
AcDbText
  0
ENDBLK
  5
13F
100
AcDbEntity
  8
0
100
AcDbBlockEnd
  0
ENDSEC
  0
SECTION
  2
ENTITIES
  0
INSERT
  5
140
100
AcDbEntity
100
AcDbBlockReference
  8
0
 62
3
  6
ByLayer
  2
CHAMBER_COUNTOR
 10
0.000000
 20
0.000000
 42
1.000000
 43
1.000000
 44
1.000000
 45
1.000000
  0
ENDSEC
  0
SECTION
  2
OBJECTS
  0
DICTIONARY
  5
C
100
AcDbDictionary
280
0
281
1
  3
ACAD_GROUP
350
D
  3
ACAD_LAYOUT
350
1A
  3
ACAD_MLINESTYLE
350
17
  3
ACAD_PLOTSETTINGS
350
19
  3
ACAD_PLOTSTYLENAME
350
E
  3
AcDbVariableDictionary
350
73
  0
DICTIONARY
  5
D
100
AcDbDictionary
280
0
281
1
  0
ACDBDICTIONARYWDFLT
  5
E
100
AcDbDictionary
281
1
  3
Normal
350
F
100
AcDbDictionaryWithDefault
340
F
  0
ACDBPLACEHOLDER
  5
F
100
AcDbPlaceHolder
  0
DICTIONARY
  5
17
100
AcDbDictionary
280
0
281
1
  3
Standard
350
18
  0
MLINESTYLE
  5
18
100
AcDbMlineStyle
  2
STANDARD
 70
0
  3

 62
256
 51
90.0
 52
90.0
 71
2
 49
0.5
 62
256
  6
BYLAYER
 49
-0.5
 62
256
  6
BYLAYER
  0
DICTIONARY
  5
19
100
AcDbDictionary
280
0
281
1
  0
DICTIONARY
  5
1A
100
AcDbDictionary
281
1
  3
Layout1
350
1E
  3
Layout2
350
26
  3
Model
350
22
  0
ENDSEC
  0
EOF
