999
Created from RPA-4 - Tool for Rocket Propulsion Analysis
999
(C) 2009-2022 RP Software+Engineering UG
999
https://www.rocket-propulsion.com
999
polylox
  0
SECTION
  2
HEADER
  9
$ACADVER
  1
AC1014
  9
$HANDSEED
  5
FFFF
  9
$MEASUREMENT
 70
1
  9
$MEASUREINIT 
 70
1
  9
$INSUNITS
 70
4
  9
$DIMSTYLE
  2
Standard
  9
$DIMUNIT
 70
2
  9
$DIMTXT
 40
2.500000
  9
$DIMASZ
 40
2.500000
  9
$DIMEXE
 40
1.250000
  9
$DIMEXO
 40
0.625000
  9
$DIMGAP
 40
0.625000
  0
ENDSEC
  0
SECTION
  2
TABLES
  0
TABLE
  2
VPORT
  5
181
100
AcDbSymbolTable
  0
VPORT
  5
182
100
AcDbSymbolTableRecord
100
AcDbViewportTableRecord
  2
*Active
 70
0
 10
0.000000
 20
0.000000
 11
750.089836
 21
343.697889
 12
375.044918
 22
171.848945
 13
0.000000
 23
0.000000
 14
10.000000
 24
10.000000
 15
10.000000
 25
10.000000
 16
0.000000
 26
0.000000
 36
1.000000
 17
0.000000
 27
0.000000
 37
0.000000
 40
343.697889
 41
1.927984
 42
50.000000
 43
0.000000
 44
0.000000
 50
0.000000
 51
0.000000
 71
1
 72
100.000000
 73
1
 74
3
 75
1
 76
1
 77
0
 78
0
281
0
 65
1
  0
ENDTAB
  0
TABLE
  2
LTYPE
  5
183
100
AcDbSymbolTable
 70
10
  0
LTYPE
  5
184
100
AcDbSymbolTableRecord
100
AcDbLinetypeTableRecord
  2
ByBlock
 70
0
  3

 72
65
 73
0
 40
0.000000
  0
LTYPE
  5
185
100
AcDbSymbolTableRecord
100
AcDbLinetypeTableRecord
  2
ByLayer
 70
0
  3

 72
65
 73
0
 40
0.000000
  0
LTYPE
  5
186
100
AcDbSymbolTableRecord
100
AcDbLinetypeTableRecord
  2
CONTINUOUS
 70
0
  3
Solid line
 72
65
 73
0
 40
0.000000
  0
LTYPE
  5
187
100
AcDbSymbolTableRecord
100
AcDbLinetypeTableRecord
  2
DOT
 70
0
  3
Dot . . . . . . . . . . . . . . . . . . . . . .
 72
65
 73
2
 40
6.350000
 49
0.000000
 74
0.000000
 49
-6.350000
 74
0.000000
  0
LTYPE
  5
188
100
AcDbSymbolTableRecord
100
AcDbLinetypeTableRecord
  2
DOT2
 70
0
  3
Dot (.5x) .....................................
 72
65
 73
2
 40
3.175000
 49
0.000000
 74
0.000000
 49
-3.175000
 74
0.000000
  0
LTYPE
  5
189
100
AcDbSymbolTableRecord
100
AcDbLinetypeTableRecord
  2
DOTX2
 70
0
  3
Dot (2x) .  .  .  .  .  .  .  .  .  .  .  .  .
 72
65
 73
2
 40
12.700000
 49
0.000000
 74
0.000000
 49
-12.700000
 74
0.000000
  0
LTYPE
  5
18A
100
AcDbSymbolTableRecord
100
AcDbLinetypeTableRecord
  2
DASHED
 70
0
  3
Dashed __ __ __ __ __ __ __ __ __ __ __ __ __ _
 72
65
 73
2
 40
19.050000
 49
12.700000
 74
0.000000
 49
-6.350000
 74
0.000000
  0
LTYPE
  5
18B
100
AcDbSymbolTableRecord
100
AcDbLinetypeTableRecord
  2
DASHED2
 70
0
  3
Dashed (.5x) _ _ _ _ _ _ _ _ _ _ _ _ _ _ _ _ _
 72
65
 73
2
 40
9.525000
 49
6.350000
 74
0.000000
 49
-3.175000
 74
0.000000
  0
LTYPE
  5
18C
100
AcDbSymbolTableRecord
100
AcDbLinetypeTableRecord
  2
DASHDOT
 70
0
  3
Dash dot __ . __ . __ . __ . __ . __ . __ . __
 72
65
 73
4
 40
25.400000
 49
12.700000
 74
0.000000
 49
-6.350000
 74
0.000000
 49
0.000000
 74
0.000000
 49
-6.350000
 74
0.000000
  0
LTYPE
  5
18D
100
AcDbSymbolTableRecord
100
AcDbLinetypeTableRecord
  2
DASHDOT2
 70
0
  3
Dash dot (.5x) _._._._._._._._._._._._._._._.
 72
65
 73
4
 40
12.700000
 49
6.350000
 74
0.000000
 49
-3.175000
 74
0.000000
 49
0.000000
 74
0.000000
 49
-3.175000
 74
0.000000
  0
LTYPE
  5
18E
100
AcDbSymbolTableRecord
100
AcDbLinetypeTableRecord
  2
DASHDOTX2
 70
0
  3
Dash dot (2x) ____  .  ____  .  ____  .  ___
 72
65
 73
4
 40
50.800000
 49
25.400000
 74
0.000000
 49
-12.700000
 74
0.000000
 49
0.000000
 74
0.000000
 49
-12.700000
 74
0.000000
  0
LTYPE
  5
18F
100
AcDbSymbolTableRecord
100
AcDbLinetypeTableRecord
  2
DIVIDE
 70
0
  3
Divide ____ . . ____ . . ____ . . ____ . . ____
 72
65
 73
6
 40
31.750000
 49
12.700000
 74
0.000000
 49
-6.350000
 74
0.000000
 49
0.000000
 74
0.000000
 49
-6.350000
 74
0.000000
 49
0.000000
 74
0.000000
 49
-6.350000
 74
0.000000
  0
LTYPE
  5
190
100
AcDbSymbolTableRecord
100
AcDbLinetypeTableRecord
  2
DIVIDEX2
 70
0
  3
Divide (2x) ________  .  .  ________  .  .  _
 72
65
 73
6
 40
63.500000
 49
25.400000
 74
0.000000
 49
-12.700000
 74
0.000000
 49
0.000000
 74
0.000000
 49
-12.700000
 74
0.000000
 49
0.000000
 74
0.000000
 49
-12.700000
 74
0.000000
  0
LTYPE
  5
191
100
AcDbSymbolTableRecord
100
AcDbLinetypeTableRecord
  2
CENTER
 70
0
  3
Center ____ _ ____ _ ____ _ ____ _ ____ _ ____
 72
65
 73
4
 40
50.800000
 49
31.750000
 74
0.000000
 49
-6.350000
 74
0.000000
 49
6.350000
 74
0.000000
 49
-6.350000
 74
0.000000
  0
LTYPE
  5
192
100
AcDbSymbolTableRecord
100
AcDbLinetypeTableRecord
  2
CENTER2
 70
0
  3
Center (.5x) ___ _ ___ _ ___ _ ___ _ ___ _ ___
 72
65
 73
4
 40
28.575000
 49
19.050000
 74
0.000000
 49
-3.175000
 74
0.000000
 49
3.175000
 74
0.000000
 49
-3.175000
 74
0.000000
  0
LTYPE
  5
193
100
AcDbSymbolTableRecord
100
AcDbLinetypeTableRecord
  2
CENTERX2
 70
0
  3
Center (2x) ________  __  ________  __  _____
 72
65
 73
4
 40
101.600000
 49
63.500000
 74
0.000000
 49
-12.700000
 74
0.000000
 49
12.700000
 74
0.000000
 49
-12.700000
 74
0.000000
  0
LTYPE
  5
194
100
AcDbSymbolTableRecord
100
AcDbLinetypeTableRecord
  2
BORDER
 70
0
  3
Border __ __ . __ __ . __ __ . __ __ . __ __ .
 72
65
 73
6
 40
44.450000
 49
12.700000
 74
0.000000
 49
-6.350000
 74
0.000000
 49
12.700000
 74
0.000000
 49
-6.350000
 74
0.000000
 49
0.000000
 74
0.000000
 49
-6.350000
 74
0.000000
  0
LTYPE
  5
195
100
AcDbSymbolTableRecord
100
AcDbLinetypeTableRecord
  2
BORDER2
 70
0
  3
Border (.5x) __.__.__.__.__.__.__.__.__.__.__.
 72
65
 73
6
 40
22.225000
 49
6.350000
 74
0.000000
 49
-3.175000
 74
0.000000
 49
6.350000
 74
0.000000
 49
-3.175000
 74
0.000000
 49
0.000000
 74
0.000000
 49
-3.175000
 74
0.000000
  0
LTYPE
  5
196
100
AcDbSymbolTableRecord
100
AcDbLinetypeTableRecord
  2
BORDERX2
 70
0
  3
Border (2x) ____  ____  .  ____  ____  .  ___
 72
65
 73
6
 40
88.900000
 49
25.400000
 74
0.000000
 49
-12.700000
 74
0.000000
 49
25.400000
 74
0.000000
 49
-12.700000
 74
0.000000
 49
0.000000
 74
0.000000
 49
-12.700000
 74
0.000000
  0
ENDTAB
  0
TABLE
  2
LAYER
  5
197
100
AcDbSymbolTable
  0
LAYER
  5
198
100
AcDbSymbolTableRecord
100
AcDbLayerTableRecord
  2
0
 70
0
 62
1
  6
Continuous
390
F
  0
LAYER
  5
199
100
AcDbSymbolTableRecord
100
AcDbLayerTableRecord
  2
Dimensions
 70
0
 62
5
  6
Continuous
390
F
  0
ENDTAB
  0
TABLE
  2
STYLE
  5
19A
100
AcDbSymbolTable
  0
STYLE
  5
19B
100
AcDbSymbolTableRecord
100
AcDbTextStyleTableRecord
  2
Standard
  3
txt
 70
0
 71
0
 40
0.000000
 41
0.750000
 42
0.000000
 50
0.000000
  0
ENDTAB
  0
TABLE
  2
VIEW
  5
19C
100
AcDbSymbolTable
 70
0
 40
750.089836
 41
343.697889
  0
ENDTAB
  0
TABLE
  2
UCS
  5
19D
100
AcDbSymbolTable
 70
0
  0
ENDTAB
  0
TABLE
  2
APPID
  5
9
100
AcDbSymbolTable
 70
1
  0
APPID
  5
12
100
AcDbSymbolTableRecord
100
AcDbRegAppTableRecord
  2
ACAD
 70
0
  0
ENDTAB
  0
TABLE
  2
DIMSTYLE
  5
A
100
AcDbSymbolTable
 70
1
 71
0
  0
DIMSTYLE
105
27
100
AcDbSymbolTableRecord
100
AcDbDimStyleTableRecord
 70
0
  2
Standard
176
5
 46
0.000000
177
5
 44
1.250000
 42
0.625000
  6
ClosedFilled
  7
ClosedFilled
 41
2.500000
340
0
178
5
140
2.500000
 77
1
147
0.625000
  0
ENDTAB
  0
TABLE
  2
BLOCK_RECORD
  5
19E
100
AcDbSymbolTable
 70
1
  0
BLOCK_RECORD
  5
19F
100
AcDbSymbolTableRecord
100
AcDbBlockTableRecord
  2
*Model_Space
340
22
  0
BLOCK_RECORD
  5
1A0
100
AcDbSymbolTableRecord
100
AcDbBlockTableRecord
  2
*Paper_Space
340
1E
  0
BLOCK_RECORD
  5
1A1
100
AcDbSymbolTableRecord
100
AcDbBlockTableRecord
  2
*Paper_Space0
340
26
  0
BLOCK_RECORD
  5
1A2
100
AcDbSymbolTableRecord
100
AcDbBlockTableRecord
  2
CHAMBER_COUNTOR
340
26
  0
ENDTAB
  0
ENDSEC
  0
SECTION
  2
BLOCKS
  0
BLOCK
  5
1A3
100
AcDbEntity
  8
0
100
AcDbBlockBegin
  2
*Model_Space
 70
1
 10
0.000000
 20
0.000000
  3
*Model_Space
  0
ENDBLK
  5
1A4
100
AcDbEntity
  8
0
100
AcDbBlockEnd
  0
BLOCK
  5
1A5
100
AcDbEntity
  8
0
100
AcDbBlockBegin
  2
*Paper_Space
 70
1
 10
0.000000
 20
0.000000
  3
*Paper_Space
  0
ENDBLK
  5
1A6
100
AcDbEntity
  8
0
100
AcDbBlockEnd
  0
BLOCK
  5
1A7
100
AcDbEntity
  8
0
100
AcDbBlockBegin
  2
*Paper_Space0
 70
1
 10
0.000000
 20
0.000000
  3
*Paper_Space0
  0
ENDBLK
  5
1A8
100
AcDbEntity
  8
0
100
AcDbBlockEnd
  0
BLOCK
  5
1A9
100
AcDbEntity
  8
0
100
AcDbBlockBegin
  2
CHAMBER_COUNTOR
 70
1
 10
0.000000
 20
0.000000
  3
CHAMBER_COUNTOR
  0
LINE
  5
1AA
100
AcDbEntity
100
AcDbLine
  8
0
 62
256
  6
ByLayer
370
-1
 10
0.000000
 20
34.369789
 30
0.000000
 11
413.150974
 21
34.369789
 31
0.000000
  0
LINE
  5
1AB
100
AcDbEntity
100
AcDbLine
  8
0
 62
256
  6
ByLayer
370
-1
 10
0.000000
 20
-34.369789
 30
0.000000
 11
413.150974
 21
-34.369789
 31
0.000000
  0
ARC
  5
1AC
100
AcDbEntity
100
AcDbCircle
  8
0
 62
256
  6
ByLayer
370
-1
 10
413.150974
 20
-127.237167
 40
161.606956
100
AcDbArc
 50
70.000000
 51
90.000000
  0
ARC
  5
1AD
100
AcDbEntity
100
AcDbCircle
  8
0
 62
256
  6
ByLayer
370
-1
 10
413.150974
 20
127.237167
 40
161.606956
100
AcDbArc
 50
270.000000
 51
290.000000
  0
LINE
  5
1AE
100
AcDbEntity
100
AcDbLine
  8
0
 62
256
  6
ByLayer
370
-1
 10
468.423808
 20
24.623697
 30
0.000000
 11
495.200976
 21
14.877605
 31
0.000000
  0
LINE
  5
1AF
100
AcDbEntity
100
AcDbLine
  8
0
 62
256
  6
ByLayer
370
-1
 10
468.423808
 20
-24.623697
 30
0.000000
 11
495.200976
 21
-14.877605
 31
0.000000
  0
ARC
  5
1B0
100
AcDbEntity
100
AcDbCircle
  8
0
 62
256
  6
ByLayer
370
-1
 10
500.000000
 20
28.062815
 40
14.031408
100
AcDbArc
 50
250.000000
 51
270.000000
  0
ARC
  5
1B1
100
AcDbEntity
100
AcDbCircle
  8
0
 62
256
  6
ByLayer
370
-1
 10
500.000000
 20
-28.062815
 40
14.031408
100
AcDbArc
 50
90.000000
 51
110.000000
  0
DIMENSION
  5
1B2
100
AcDbEntity
100
AcDbDimension
  8
Dimensions
 70
32
 62
256
  1
D68.7396
 10
-10.000000
 20
34.369789
 11
-12.000000
 21
0.000000
 53
90.000000
100
AcDbAlignedDimension
 13
0.000000
 23
-34.369789
 14
0.000000
 24
34.369789
 50
90.000000
100
AcDbRotatedDimension
  0
DIMENSION
  5
1B3
100
AcDbEntity
100
AcDbDimension
  8
Dimensions
 70
32
 62
256
  1
D28.0628
 10
760.089836
 20
14.031408
 11
758.089836
 21
0.000000
 53
90.000000
100
AcDbAlignedDimension
 13
500.000000
 23
-14.031408
 14
500.000000
 24
14.031408
 50
90.000000
100
AcDbRotatedDimension
  0
DIMENSION
  5
1B4
100
AcDbEntity
100
AcDbDimension
  8
Dimensions
 70
32
 62
256
 10
0.000000
 20
-181.848945
 11
206.575487
 21
-178.848945
100
AcDbAlignedDimension
 13
0.000000
 23
-34.369789
 14
413.150974
 24
-34.369789
 50
0.000000
100
AcDbRotatedDimension
  0
DIMENSION
  5
1B5
100
AcDbEntity
100
AcDbDimension
  8
Dimensions
 70
32
 62
256
 10
0.000000
 20
-191.848945
 11
250.000000
 21
-188.848945
100
AcDbAlignedDimension
 13
0.000000
 23
-34.369789
 14
500.000000
 24
-14.031408
 50
0.000000
100
AcDbRotatedDimension
  0
DIMENSION
  5
1B6
100
AcDbEntity
100
AcDbDimension
  8
Dimensions
 70
32
 62
256
 10
0.000000
 20
-201.848945
 11
375.044918
 21
-198.848945
100
AcDbAlignedDimension
 13
0.000000
 23
-34.369789
 14
750.089836
 24
-171.848945
 50
0.000000
100
AcDbRotatedDimension
  0
DIMENSION
  5
1B7
100
AcDbEntity
100
AcDbDimension
  8
Dimensions
 70
4
 62
256
  1
R161.6070
 10
413.150974
 20
-127.237167
 11
410.444263
 21
46.351984
100
AcDbRadialDimension
 15
413.889396
 25
34.368102
  0
DIMENSION
  5
1B8
100
AcDbEntity
100
AcDbDimension
  8
Dimensions
 70
4
 62
256
  1
R14.0314
 10
500.000000
 20
28.062815
 11
496.403939
 21
7.015635
100
AcDbRadialDimension
 15
499.935887
 25
14.031554
  0
DIMENSION
  5
1B9
100
AcDbEntity
100
AcDbDimension
  8
Dimensions
 70
2
 62
256
 10
495.200976
 20
0.000000
 11
434.054019
 21
18.467773
100
AcDb2LineAngularDimension
 13
495.200976
 23
14.877605
 14
468.423808
 24
24.623697
 15
468.423808
 25
0.000000
 16
434.054019
 26
18.467773
  0
LWPOLYLINE
  5
1BA
100
AcDbEntity
100
AcDbPolyline
  8
0
 62
256
  6
ByLayer
370
-1
 70
0
 43
0.000000
 90
200
 10
500.000000
 20
14.031408
 10
500.012567
 20
14.031422
 10
500.025135
 20
14.031467
 10
500.037702
 20
14.031540
 10
500.050269
 20
14.031643
 10
500.062837
 20
14.031776
 10
500.075404
 20
14.031938
 10
500.087971
 20
14.032130
 10
500.100539
 20
14.032351
 10
500.113106
 20
14.032601
 10
500.125673
 20
14.032881
 10
500.188510
 20
14.034724
 10
500.251347
 20
14.037304
 10
500.314183
 20
14.040624
 10
500.377020
 20
14.044684
 10
500.439856
 20
14.049486
 10
500.502693
 20
14.055032
 10
500.565530
 20
14.061325
 10
500.628366
 20
14.068368
 10
500.691203
 20
14.076162
 10
500.754040
 20
14.084711
 10
500.816876
 20
14.094020
 10
500.879713
 20
14.104092
 10
500.942550
 20
14.114931
 10
501.005386
 20
14.126543
 10
501.068223
 20
14.138932
 10
501.193896
 20
14.166064
 10
501.319569
 20
14.196378
 10
501.445243
 20
14.229928
 10
501.570916
 20
14.266779
 10
501.696589
 20
14.307002
 10
501.822263
 20
14.350678
 10
501.947936
 20
14.397897
 10
502.073609
 20
14.448762
 10
502.199282
 20
14.503386
 10
502.324956
 20
14.561896
 10
502.450629
 20
14.624436
 10
502.576302
 20
14.691167
 10
502.701976
 20
14.762269
 10
502.827649
 20
14.837948
 10
502.953322
 20
14.918435
 10
503.078995
 20
15.003996
 10
503.204669
 20
15.094933
 10
503.330342
 20
15.191596
 10
503.456015
 20
15.293645
 10
503.581689
 20
15.396372
 10
503.707362
 20
15.499217
 10
503.833035
 20
15.601714
 10
503.958708
 20
15.704330
 10
504.084382
 20
15.807349
 10
504.210055
 20
15.910771
 10
504.335728
 20
16.014597
 10
504.461402
 20
16.118865
 10
504.587075
 20
16.223962
 10
504.712748
 20
16.329315
 10
504.838421
 20
16.434923
 10
504.964095
 20
16.540788
 10
505.089768
 20
16.646908
 10
505.215441
 20
16.753285
 10
505.341115
 20
16.859917
 10
505.466788
 20
16.966922
 10
505.592461
 20
17.074212
 10
505.718134
 20
17.181715
 10
505.843808
 20
17.289431
 10
505.969481
 20
17.397359
 10
506.095154
 20
17.505500
 10
506.220828
 20
17.613853
 10
506.346501
 20
17.722420
 10
506.472174
 20
17.831198
 10
506.597847
 20
17.940041
 10
506.723521
 20
18.049025
 10
506.849194
 20
18.158274
 10
506.974867
 20
18.267788
 10
507.100541
 20
18.377567
 10
507.226214
 20
18.487611
 10
507.351887
 20
18.597919
 10
509.310465
 20
20.351655
 10
511.269042
 20
22.090082
 10
513.227620
 20
23.851274
 10
515.186198
 20
25.630640
 10
517.144775
 20
27.412898
 10
519.103353
 20
29.176748
 10
521.061930
 20
30.942989
 10
523.020508
 20
32.697878
 10
524.979086
 20
34.444291
 10
526.937663
 20
36.179196
 10
528.896241
 20
37.896054
 10
530.854818
 20
39.598862
 10
532.813396
 20
41.285356
 10
534.771974
 20
42.951532
 10
536.730551
 20
44.606448
 10
538.689129
 20
46.249974
 10
540.647706
 20
47.883803
 10
542.606284
 20
49.500841
 10
544.564862
 20
51.094701
 10
546.523439
 20
52.680119
 10
548.482017
 20
54.258687
 10
550.440594
 20
55.810184
 10
552.399172
 20
57.338585
 10
554.357750
 20
58.861881
 10
556.316327
 20
60.377912
 10
558.274905
 20
61.879195
 10
560.233482
 20
63.366450
 10
562.192060
 20
64.842818
 10
564.150638
 20
66.308231
 10
566.109215
 20
67.759927
 10
568.067793
 20
69.197191
 10
570.026370
 20
70.622517
 10
571.984948
 20
72.033586
 10
573.943526
 20
73.435725
 10
575.902103
 20
74.830466
 10
577.860681
 20
76.216536
 10
579.819258
 20
77.593478
 10
581.777836
 20
78.961621
 10
583.736414
 20
80.317319
 10
585.694991
 20
81.657387
 10
587.653569
 20
82.988268
 10
589.612146
 20
84.311217
 10
591.570724
 20
85.626308
 10
593.529302
 20
86.934607
 10
595.487879
 20
88.240600
 10
597.446457
 20
89.535988
 10
599.405034
 20
90.816799
 10
601.363612
 20
92.078646
 10
603.322190
 20
93.335506
 10
605.280767
 20
94.586790
 10
607.239345
 20
95.832986
 10
609.197922
 20
97.075539
 10
611.156500
 20
98.321847
 10
613.115078
 20
99.560366
 10
615.073655
 20
100.783984
 10
617.032233
 20
101.979972
 10
618.990810
 20
103.171530
 10
620.949388
 20
104.362771
 10
622.907966
 20
105.562841
 10
624.866543
 20
106.754394
 10
626.825121
 20
107.935405
 10
628.783698
 20
109.100510
 10
630.742276
 20
110.260006
 10
632.700853
 20
111.414358
 10
634.659431
 20
112.563365
 10
636.618009
 20
113.707397
 10
638.576586
 20
114.846488
 10
640.535164
 20
115.980453
 10
642.493741
 20
117.109609
 10
644.452319
 20
118.234022
 10
646.410897
 20
119.357029
 10
648.369474
 20
120.473762
 10
650.328052
 20
121.581722
 10
652.286629
 20
122.678015
 10
654.245207
 20
123.765300
 10
656.203785
 20
124.848254
 10
658.162362
 20
125.926841
 10
660.120940
 20
127.000959
 10
662.079517
 20
128.070913
 10
664.038095
 20
129.136702
 10
665.996673
 20
130.198160
 10
667.955250
 20
131.255548
 10
669.913828
 20
132.308933
 10
671.872405
 20
133.358234
 10
673.830983
 20
134.403480
 10
675.789561
 20
135.444878
 10
677.748138
 20
136.482429
 10
679.706716
 20
137.519968
 10
681.665293
 20
138.551051
 10
683.623871
 20
139.574982
 10
685.582449
 20
140.589560
 10
687.541026
 20
141.595762
 10
689.499604
 20
142.598430
 10
691.458181
 20
143.597565
 10
693.416759
 20
144.593027
 10
695.375337
 20
145.585017
 10
697.333914
 20
146.573601
 10
699.292492
 20
147.558768
 10
701.251069
 20
148.540375
 10
703.209647
 20
149.518702
 10
705.168225
 20
150.493751
 10
707.126802
 20
151.467069
 10
709.085380
 20
152.438589
 10
711.043957
 20
153.404007
 10
713.002535
 20
154.363322
 10
714.961113
 20
155.311210
 10
716.919690
 20
156.252946
 10
718.878268
 20
157.194452
 10
720.836845
 20
158.135728
 10
722.795423
 20
159.082377
 10
724.754001
 20
160.027594
 10
726.712578
 20
160.967108
 10
728.671156
 20
161.900920
 10
730.629733
 20
162.825521
 10
732.588311
 20
163.745820
 10
734.546889
 20
164.663266
 10
736.505466
 20
165.577861
 10
738.464044
 20
166.489391
 10
740.422621
 20
167.398152
 10
742.381199
 20
168.304231
 10
744.339777
 20
169.207627
 10
746.298354
 20
170.111307
 10
748.256932
 20
171.011372
 10
750.089836
 20
171.849028
  0
LWPOLYLINE
  5
1BB
100
AcDbEntity
100
AcDbPolyline
  8
0
 62
256
  6
ByLayer
370
-1
 70
0
 43
0.000000
 90
200
 10
500.000000
 20
-14.031408
 10
500.012567
 20
-14.031422
 10
500.025135
 20
-14.031467
 10
500.037702
 20
-14.031540
 10
500.050269
 20
-14.031643
 10
500.062837
 20
-14.031776
 10
500.075404
 20
-14.031938
 10
500.087971
 20
-14.032130
 10
500.100539
 20
-14.032351
 10
500.113106
 20
-14.032601
 10
500.125673
 20
-14.032881
 10
500.188510
 20
-14.034724
 10
500.251347
 20
-14.037304
 10
500.314183
 20
-14.040624
 10
500.377020
 20
-14.044684
 10
500.439856
 20
-14.049486
 10
500.502693
 20
-14.055032
 10
500.565530
 20
-14.061325
 10
500.628366
 20
-14.068368
 10
500.691203
 20
-14.076162
 10
500.754040
 20
-14.084711
 10
500.816876
 20
-14.094020
 10
500.879713
 20
-14.104092
 10
500.942550
 20
-14.114931
 10
501.005386
 20
-14.126543
 10
501.068223
 20
-14.138932
 10
501.193896
 20
-14.166064
 10
501.319569
 20
-14.196378
 10
501.445243
 20
-14.229928
 10
501.570916
 20
-14.266779
 10
501.696589
 20
-14.307002
 10
501.822263
 20
-14.350678
 10
501.947936
 20
-14.397897
 10
502.073609
 20
-14.448762
 10
502.199282
 20
-14.503386
 10
502.324956
 20
-14.561896
 10
502.450629
 20
-14.624436
 10
502.576302
 20
-14.691167
 10
502.701976
 20
-14.762269
 10
502.827649
 20
-14.837948
 10
502.953322
 20
-14.918435
 10
503.078995
 20
-15.003996
 10
503.204669
 20
-15.094933
 10
503.330342
 20
-15.191596
 10
503.456015
 20
-15.293645
 10
503.581689
 20
-15.396372
 10
503.707362
 20
-15.499217
 10
503.833035
 20
-15.601714
 10
503.958708
 20
-15.704330
 10
504.084382
 20
-15.807349
 10
504.210055
 20
-15.910771
 10
504.335728
 20
-16.014597
 10
504.461402
 20
-16.118865
 10
504.587075
 20
-16.223962
 10
504.712748
 20
-16.329315
 10
504.838421
 20
-16.434923
 10
504.964095
 20
-16.540788
 10
505.089768
 20
-16.646908
 10
505.215441
 20
-16.753285
 10
505.341115
 20
-16.859917
 10
505.466788
 20
-16.966922
 10
505.592461
 20
-17.074212
 10
505.718134
 20
-17.181715
 10
505.843808
 20
-17.289431
 10
505.969481
 20
-17.397359
 10
506.095154
 20
-17.505500
 10
506.220828
 20
-17.613853
 10
506.346501
 20
-17.722420
 10
506.472174
 20
-17.831198
 10
506.597847
 20
-17.940041
 10
506.723521
 20
-18.049025
 10
506.849194
 20
-18.158274
 10
506.974867
 20
-18.267788
 10
507.100541
 20
-18.377567
 10
507.226214
 20
-18.487611
 10
507.351887
 20
-18.597919
 10
509.310465
 20
-20.351655
 10
511.269042
 20
-22.090082
 10
513.227620
 20
-23.851274
 10
515.186198
 20
-25.630640
 10
517.144775
 20
-27.412898
 10
519.103353
 20
-29.176748
 10
521.061930
 20
-30.942989
 10
523.020508
 20
-32.697878
 10
524.979086
 20
-34.444291
 10
526.937663
 20
-36.179196
 10
528.896241
 20
-37.896054
 10
530.854818
 20
-39.598862
 10
532.813396
 20
-41.285356
 10
534.771974
 20
-42.951532
 10
536.730551
 20
-44.606448
 10
538.689129
 20
-46.249974
 10
540.647706
 20
-47.883803
 10
542.606284
 20
-49.500841
 10
544.564862
 20
-51.094701
 10
546.523439
 20
-52.680119
 10
548.482017
 20
-54.258687
 10
550.440594
 20
-55.810184
 10
552.399172
 20
-57.338585
 10
554.357750
 20
-58.861881
 10
556.316327
 20
-60.377912
 10
558.274905
 20
-61.879195
 10
560.233482
 20
-63.366450
 10
562.192060
 20
-64.842818
 10
564.150638
 20
-66.308231
 10
566.109215
 20
-67.759927
 10
568.067793
 20
-69.197191
 10
570.026370
 20
-70.622517
 10
571.984948
 20
-72.033586
 10
573.943526
 20
-73.435725
 10
575.902103
 20
-74.830466
 10
577.860681
 20
-76.216536
 10
579.819258
 20
-77.593478
 10
581.777836
 20
-78.961621
 10
583.736414
 20
-80.317319
 10
585.694991
 20
-81.657387
 10
587.653569
 20
-82.988268
 10
589.612146
 20
-84.311217
 10
591.570724
 20
-85.626308
 10
593.529302
 20
-86.934607
 10
595.487879
 20
-88.240600
 10
597.446457
 20
-89.535988
 10
599.405034
 20
-90.816799
 10
601.363612
 20
-92.078646
 10
603.322190
 20
-93.335506
 10
605.280767
 20
-94.586790
 10
607.239345
 20
-95.832986
 10
609.197922
 20
-97.075539
 10
611.156500
 20
-98.321847
 10
613.115078
 20
-99.560366
 10
615.073655
 20
-100.783984
 10
617.032233
 20
-101.979972
 10
618.990810
 20
-103.171530
 10
620.949388
 20
-104.362771
 10
622.907966
 20
-105.562841
 10
624.866543
 20
-106.754394
 10
626.825121
 20
-107.935405
 10
628.783698
 20
-109.100510
 10
630.742276
 20
-110.260006
 10
632.700853
 20
-111.414358
 10
634.659431
 20
-112.563365
 10
636.618009
 20
-113.707397
 10
638.576586
 20
-114.846488
 10
640.535164
 20
-115.980453
 10
642.493741
 20
-117.109609
 10
644.452319
 20
-118.234022
 10
646.410897
 20
-119.357029
 10
648.369474
 20
-120.473762
 10
650.328052
 20
-121.581722
 10
652.286629
 20
-122.678015
 10
654.245207
 20
-123.765300
 10
656.203785
 20
-124.848254
 10
658.162362
 20
-125.926841
 10
660.120940
 20
-127.000959
 10
662.079517
 20
-128.070913
 10
664.038095
 20
-129.136702
 10
665.996673
 20
-130.198160
 10
667.955250
 20
-131.255548
 10
669.913828
 20
-132.308933
 10
671.872405
 20
-133.358234
 10
673.830983
 20
-134.403480
 10
675.789561
 20
-135.444878
 10
677.748138
 20
-136.482429
 10
679.706716
 20
-137.519968
 10
681.665293
 20
-138.551051
 10
683.623871
 20
-139.574982
 10
685.582449
 20
-140.589560
 10
687.541026
 20
-141.595762
 10
689.499604
 20
-142.598430
 10
691.458181
 20
-143.597565
 10
693.416759
 20
-144.593027
 10
695.375337
 20
-145.585017
 10
697.333914
 20
-146.573601
 10
699.292492
 20
-147.558768
 10
701.251069
 20
-148.540375
 10
703.209647
 20
-149.518702
 10
705.168225
 20
-150.493751
 10
707.126802
 20
-151.467069
 10
709.085380
 20
-152.438589
 10
711.043957
 20
-153.404007
 10
713.002535
 20
-154.363322
 10
714.961113
 20
-155.311210
 10
716.919690
 20
-156.252946
 10
718.878268
 20
-157.194452
 10
720.836845
 20
-158.135728
 10
722.795423
 20
-159.082377
 10
724.754001
 20
-160.027594
 10
726.712578
 20
-160.967108
 10
728.671156
 20
-161.900920
 10
730.629733
 20
-162.825521
 10
732.588311
 20
-163.745820
 10
734.546889
 20
-164.663266
 10
736.505466
 20
-165.577861
 10
738.464044
 20
-166.489391
 10
740.422621
 20
-167.398152
 10
742.381199
 20
-168.304231
 10
744.339777
 20
-169.207627
 10
746.298354
 20
-170.111307
 10
748.256932
 20
-171.011372
 10
750.089836
 20
-171.849028
  0
DIMENSION
  5
1BC
100
AcDbEntity
100
AcDbDimension
  8
Dimensions
 70
32
 62
256
  1
D343.6979
 10
770.089836
 20
0.000000
 11
768.089836
 21
0.000000
 53
90.000000
100
AcDbAlignedDimension
 13
750.089836
 23
-171.848945
 14
750.089836
 24
171.848945
 50
90.000000
100
AcDbRotatedDimension
  0
LINE
  5
1BD
100
AcDbEntity
100
AcDbLine
  8
0
 62
3
  6
CENTER2
370
-1
 10
0.000000
 20
0.000000
 30
0.000000
 11
750.089836
 21
0.000000
 31
0.000000
  0
TEXT
  5
1BE
100
AcDbEntity
  8
Dimensions
 62
3
  6
ByLayer
100
AcDbText
 10
0.000000
 20
-221.848945
 40
5.000000
  1
polylox
 50
0.000000
100
AcDbText
  0
ENDBLK
  5
1BF
100
AcDbEntity
  8
0
100
AcDbBlockEnd
  0
ENDSEC
  0
SECTION
  2
ENTITIES
  0
INSERT
  5
1C0
100
AcDbEntity
100
AcDbBlockReference
  8
0
 62
3
  6
ByLayer
  2
CHAMBER_COUNTOR
 10
0.000000
 20
0.000000
 42
1.000000
 43
1.000000
 44
1.000000
 45
1.000000
  0
ENDSEC
  0
SECTION
  2
OBJECTS
  0
DICTIONARY
  5
C
100
AcDbDictionary
280
0
281
1
  3
ACAD_GROUP
350
D
  3
ACAD_LAYOUT
350
1A
  3
ACAD_MLINESTYLE
350
17
  3
ACAD_PLOTSETTINGS
350
19
  3
ACAD_PLOTSTYLENAME
350
E
  3
AcDbVariableDictionary
350
73
  0
DICTIONARY
  5
D
100
AcDbDictionary
280
0
281
1
  0
ACDBDICTIONARYWDFLT
  5
E
100
AcDbDictionary
281
1
  3
Normal
350
F
100
AcDbDictionaryWithDefault
340
F
  0
ACDBPLACEHOLDER
  5
F
100
AcDbPlaceHolder
  0
DICTIONARY
  5
17
100
AcDbDictionary
280
0
281
1
  3
Standard
350
18
  0
MLINESTYLE
  5
18
100
AcDbMlineStyle
  2
STANDARD
 70
0
  3

 62
256
 51
90.0
 52
90.0
 71
2
 49
0.5
 62
256
  6
BYLAYER
 49
-0.5
 62
256
  6
BYLAYER
  0
DICTIONARY
  5
19
100
AcDbDictionary
280
0
281
1
  0
DICTIONARY
  5
1A
100
AcDbDictionary
281
1
  3
Layout1
350
1E
  3
Layout2
350
26
  3
Model
350
22
  0
ENDSEC
  0
EOF
