999
Created from RPA-4 - Tool for Rocket Propulsion Analysis
999
(C) 2009-2022 RP Software+Engineering UG
999
https://www.rocket-propulsion.com
999
project 5mPa
  0
SECTION
  2
HEADER
  9
$ACADVER
  1
AC1014
  9
$HANDSEED
  5
FFFF
  9
$MEASUREMENT
 70
1
  9
$MEASUREINIT 
 70
1
  9
$INSUNITS
 70
4
  9
$DIMSTYLE
  2
Standard
  9
$DIMUNIT
 70
2
  9
$DIMTXT
 40
2.500000
  9
$DIMASZ
 40
2.500000
  9
$DIMEXE
 40
1.250000
  9
$DIMEXO
 40
0.625000
  9
$DIMGAP
 40
0.625000
  0
ENDSEC
  0
SECTION
  2
TABLES
  0
TABLE
  2
VPORT
  5
141
100
AcDbSymbolTable
  0
VPORT
  5
142
100
AcDbSymbolTableRecord
100
AcDbViewportTableRecord
  2
*Active
 70
0
 10
0.000000
 20
0.000000
 11
616.000000
 21
76.726788
 12
308.000000
 22
38.363394
 13
0.000000
 23
0.000000
 14
10.000000
 24
10.000000
 15
10.000000
 25
10.000000
 16
0.000000
 26
0.000000
 36
1.000000
 17
0.000000
 27
0.000000
 37
0.000000
 40
76.726788
 41
1.927984
 42
50.000000
 43
0.000000
 44
0.000000
 50
0.000000
 51
0.000000
 71
1
 72
100.000000
 73
1
 74
3
 75
1
 76
1
 77
0
 78
0
281
0
 65
1
  0
ENDTAB
  0
TABLE
  2
LTYPE
  5
143
100
AcDbSymbolTable
 70
10
  0
LTYPE
  5
144
100
AcDbSymbolTableRecord
100
AcDbLinetypeTableRecord
  2
ByBlock
 70
0
  3

 72
65
 73
0
 40
0.000000
  0
LTYPE
  5
145
100
AcDbSymbolTableRecord
100
AcDbLinetypeTableRecord
  2
ByLayer
 70
0
  3

 72
65
 73
0
 40
0.000000
  0
LTYPE
  5
146
100
AcDbSymbolTableRecord
100
AcDbLinetypeTableRecord
  2
CONTINUOUS
 70
0
  3
Solid line
 72
65
 73
0
 40
0.000000
  0
LTYPE
  5
147
100
AcDbSymbolTableRecord
100
AcDbLinetypeTableRecord
  2
DOT
 70
0
  3
Dot . . . . . . . . . . . . . . . . . . . . . .
 72
65
 73
2
 40
6.350000
 49
0.000000
 74
0.000000
 49
-6.350000
 74
0.000000
  0
LTYPE
  5
148
100
AcDbSymbolTableRecord
100
AcDbLinetypeTableRecord
  2
DOT2
 70
0
  3
Dot (.5x) .....................................
 72
65
 73
2
 40
3.175000
 49
0.000000
 74
0.000000
 49
-3.175000
 74
0.000000
  0
LTYPE
  5
149
100
AcDbSymbolTableRecord
100
AcDbLinetypeTableRecord
  2
DOTX2
 70
0
  3
Dot (2x) .  .  .  .  .  .  .  .  .  .  .  .  .
 72
65
 73
2
 40
12.700000
 49
0.000000
 74
0.000000
 49
-12.700000
 74
0.000000
  0
LTYPE
  5
14A
100
AcDbSymbolTableRecord
100
AcDbLinetypeTableRecord
  2
DASHED
 70
0
  3
Dashed __ __ __ __ __ __ __ __ __ __ __ __ __ _
 72
65
 73
2
 40
19.050000
 49
12.700000
 74
0.000000
 49
-6.350000
 74
0.000000
  0
LTYPE
  5
14B
100
AcDbSymbolTableRecord
100
AcDbLinetypeTableRecord
  2
DASHED2
 70
0
  3
Dashed (.5x) _ _ _ _ _ _ _ _ _ _ _ _ _ _ _ _ _
 72
65
 73
2
 40
9.525000
 49
6.350000
 74
0.000000
 49
-3.175000
 74
0.000000
  0
LTYPE
  5
14C
100
AcDbSymbolTableRecord
100
AcDbLinetypeTableRecord
  2
DASHDOT
 70
0
  3
Dash dot __ . __ . __ . __ . __ . __ . __ . __
 72
65
 73
4
 40
25.400000
 49
12.700000
 74
0.000000
 49
-6.350000
 74
0.000000
 49
0.000000
 74
0.000000
 49
-6.350000
 74
0.000000
  0
LTYPE
  5
14D
100
AcDbSymbolTableRecord
100
AcDbLinetypeTableRecord
  2
DASHDOT2
 70
0
  3
Dash dot (.5x) _._._._._._._._._._._._._._._.
 72
65
 73
4
 40
12.700000
 49
6.350000
 74
0.000000
 49
-3.175000
 74
0.000000
 49
0.000000
 74
0.000000
 49
-3.175000
 74
0.000000
  0
LTYPE
  5
14E
100
AcDbSymbolTableRecord
100
AcDbLinetypeTableRecord
  2
DASHDOTX2
 70
0
  3
Dash dot (2x) ____  .  ____  .  ____  .  ___
 72
65
 73
4
 40
50.800000
 49
25.400000
 74
0.000000
 49
-12.700000
 74
0.000000
 49
0.000000
 74
0.000000
 49
-12.700000
 74
0.000000
  0
LTYPE
  5
14F
100
AcDbSymbolTableRecord
100
AcDbLinetypeTableRecord
  2
DIVIDE
 70
0
  3
Divide ____ . . ____ . . ____ . . ____ . . ____
 72
65
 73
6
 40
31.750000
 49
12.700000
 74
0.000000
 49
-6.350000
 74
0.000000
 49
0.000000
 74
0.000000
 49
-6.350000
 74
0.000000
 49
0.000000
 74
0.000000
 49
-6.350000
 74
0.000000
  0
LTYPE
  5
150
100
AcDbSymbolTableRecord
100
AcDbLinetypeTableRecord
  2
DIVIDEX2
 70
0
  3
Divide (2x) ________  .  .  ________  .  .  _
 72
65
 73
6
 40
63.500000
 49
25.400000
 74
0.000000
 49
-12.700000
 74
0.000000
 49
0.000000
 74
0.000000
 49
-12.700000
 74
0.000000
 49
0.000000
 74
0.000000
 49
-12.700000
 74
0.000000
  0
LTYPE
  5
151
100
AcDbSymbolTableRecord
100
AcDbLinetypeTableRecord
  2
CENTER
 70
0
  3
Center ____ _ ____ _ ____ _ ____ _ ____ _ ____
 72
65
 73
4
 40
50.800000
 49
31.750000
 74
0.000000
 49
-6.350000
 74
0.000000
 49
6.350000
 74
0.000000
 49
-6.350000
 74
0.000000
  0
LTYPE
  5
152
100
AcDbSymbolTableRecord
100
AcDbLinetypeTableRecord
  2
CENTER2
 70
0
  3
Center (.5x) ___ _ ___ _ ___ _ ___ _ ___ _ ___
 72
65
 73
4
 40
28.575000
 49
19.050000
 74
0.000000
 49
-3.175000
 74
0.000000
 49
3.175000
 74
0.000000
 49
-3.175000
 74
0.000000
  0
LTYPE
  5
153
100
AcDbSymbolTableRecord
100
AcDbLinetypeTableRecord
  2
CENTERX2
 70
0
  3
Center (2x) ________  __  ________  __  _____
 72
65
 73
4
 40
101.600000
 49
63.500000
 74
0.000000
 49
-12.700000
 74
0.000000
 49
12.700000
 74
0.000000
 49
-12.700000
 74
0.000000
  0
LTYPE
  5
154
100
AcDbSymbolTableRecord
100
AcDbLinetypeTableRecord
  2
BORDER
 70
0
  3
Border __ __ . __ __ . __ __ . __ __ . __ __ .
 72
65
 73
6
 40
44.450000
 49
12.700000
 74
0.000000
 49
-6.350000
 74
0.000000
 49
12.700000
 74
0.000000
 49
-6.350000
 74
0.000000
 49
0.000000
 74
0.000000
 49
-6.350000
 74
0.000000
  0
LTYPE
  5
155
100
AcDbSymbolTableRecord
100
AcDbLinetypeTableRecord
  2
BORDER2
 70
0
  3
Border (.5x) __.__.__.__.__.__.__.__.__.__.__.
 72
65
 73
6
 40
22.225000
 49
6.350000
 74
0.000000
 49
-3.175000
 74
0.000000
 49
6.350000
 74
0.000000
 49
-3.175000
 74
0.000000
 49
0.000000
 74
0.000000
 49
-3.175000
 74
0.000000
  0
LTYPE
  5
156
100
AcDbSymbolTableRecord
100
AcDbLinetypeTableRecord
  2
BORDERX2
 70
0
  3
Border (2x) ____  ____  .  ____  ____  .  ___
 72
65
 73
6
 40
88.900000
 49
25.400000
 74
0.000000
 49
-12.700000
 74
0.000000
 49
25.400000
 74
0.000000
 49
-12.700000
 74
0.000000
 49
0.000000
 74
0.000000
 49
-12.700000
 74
0.000000
  0
ENDTAB
  0
TABLE
  2
LAYER
  5
157
100
AcDbSymbolTable
  0
LAYER
  5
158
100
AcDbSymbolTableRecord
100
AcDbLayerTableRecord
  2
0
 70
0
 62
1
  6
Continuous
390
F
  0
LAYER
  5
159
100
AcDbSymbolTableRecord
100
AcDbLayerTableRecord
  2
Dimensions
 70
0
 62
5
  6
Continuous
390
F
  0
ENDTAB
  0
TABLE
  2
STYLE
  5
15A
100
AcDbSymbolTable
  0
STYLE
  5
15B
100
AcDbSymbolTableRecord
100
AcDbTextStyleTableRecord
  2
Standard
  3
txt
 70
0
 71
0
 40
0.000000
 41
0.750000
 42
0.000000
 50
0.000000
  0
ENDTAB
  0
TABLE
  2
VIEW
  5
15C
100
AcDbSymbolTable
 70
0
 40
616.000000
 41
76.726788
  0
ENDTAB
  0
TABLE
  2
UCS
  5
15D
100
AcDbSymbolTable
 70
0
  0
ENDTAB
  0
TABLE
  2
APPID
  5
9
100
AcDbSymbolTable
 70
1
  0
APPID
  5
12
100
AcDbSymbolTableRecord
100
AcDbRegAppTableRecord
  2
ACAD
 70
0
  0
ENDTAB
  0
TABLE
  2
DIMSTYLE
  5
A
100
AcDbSymbolTable
 70
1
 71
0
  0
DIMSTYLE
105
27
100
AcDbSymbolTableRecord
100
AcDbDimStyleTableRecord
 70
0
  2
Standard
176
5
 46
0.000000
177
5
 44
1.250000
 42
0.625000
  6
ClosedFilled
  7
ClosedFilled
 41
2.500000
340
0
178
5
140
2.500000
 77
1
147
0.625000
  0
ENDTAB
  0
TABLE
  2
BLOCK_RECORD
  5
15E
100
AcDbSymbolTable
 70
1
  0
BLOCK_RECORD
  5
15F
100
AcDbSymbolTableRecord
100
AcDbBlockTableRecord
  2
*Model_Space
340
22
  0
BLOCK_RECORD
  5
160
100
AcDbSymbolTableRecord
100
AcDbBlockTableRecord
  2
*Paper_Space
340
1E
  0
BLOCK_RECORD
  5
161
100
AcDbSymbolTableRecord
100
AcDbBlockTableRecord
  2
*Paper_Space0
340
26
  0
BLOCK_RECORD
  5
162
100
AcDbSymbolTableRecord
100
AcDbBlockTableRecord
  2
CHAMBER_COUNTOR
340
26
  0
ENDTAB
  0
ENDSEC
  0
SECTION
  2
BLOCKS
  0
BLOCK
  5
163
100
AcDbEntity
  8
0
100
AcDbBlockBegin
  2
*Model_Space
 70
1
 10
0.000000
 20
0.000000
  3
*Model_Space
  0
ENDBLK
  5
164
100
AcDbEntity
  8
0
100
AcDbBlockEnd
  0
BLOCK
  5
165
100
AcDbEntity
  8
0
100
AcDbBlockBegin
  2
*Paper_Space
 70
1
 10
0.000000
 20
0.000000
  3
*Paper_Space
  0
ENDBLK
  5
166
100
AcDbEntity
  8
0
100
AcDbBlockEnd
  0
BLOCK
  5
167
100
AcDbEntity
  8
0
100
AcDbBlockBegin
  2
*Paper_Space0
 70
1
 10
0.000000
 20
0.000000
  3
*Paper_Space0
  0
ENDBLK
  5
168
100
AcDbEntity
  8
0
100
AcDbBlockEnd
  0
BLOCK
  5
169
100
AcDbEntity
  8
0
100
AcDbBlockBegin
  2
CHAMBER_COUNTOR
 70
1
 10
0.000000
 20
0.000000
  3
CHAMBER_COUNTOR
  0
LINE
  5
16A
100
AcDbEntity
100
AcDbLine
  8
0
 62
256
  6
ByLayer
370
-1
 10
0.000000
 20
29.000000
 30
0.000000
 11
437.046440
 21
29.000000
 31
0.000000
  0
LINE
  5
16B
100
AcDbEntity
100
AcDbLine
  8
0
 62
256
  6
ByLayer
370
-1
 10
0.000000
 20
-29.000000
 30
0.000000
 11
437.046440
 21
-29.000000
 31
0.000000
  0
ARC
  5
16C
100
AcDbEntity
100
AcDbCircle
  8
0
 62
256
  6
ByLayer
370
-1
 10
437.046440
 20
-80.342461
 40
109.342461
100
AcDbArc
 50
70.000000
 51
90.000000
  0
ARC
  5
16D
100
AcDbEntity
100
AcDbCircle
  8
0
 62
256
  6
ByLayer
370
-1
 10
437.046440
 20
80.342461
 40
109.342461
100
AcDbArc
 50
270.000000
 51
290.000000
  0
LINE
  5
16E
100
AcDbEntity
100
AcDbLine
  8
0
 62
256
  6
ByLayer
370
-1
 10
474.443764
 20
22.405843
 30
0.000000
 11
492.561062
 21
15.811685
 31
0.000000
  0
LINE
  5
16F
100
AcDbEntity
100
AcDbLine
  8
0
 62
256
  6
ByLayer
370
-1
 10
474.443764
 20
-22.405843
 30
0.000000
 11
492.561062
 21
-15.811685
 31
0.000000
  0
ARC
  5
170
100
AcDbEntity
100
AcDbCircle
  8
0
 62
256
  6
ByLayer
370
-1
 10
500.000000
 20
36.250000
 40
21.750000
100
AcDbArc
 50
250.000000
 51
270.000000
  0
ARC
  5
171
100
AcDbEntity
100
AcDbCircle
  8
0
 62
256
  6
ByLayer
370
-1
 10
500.000000
 20
-36.250000
 40
21.750000
100
AcDbArc
 50
90.000000
 51
110.000000
  0
DIMENSION
  5
172
100
AcDbEntity
100
AcDbDimension
  8
Dimensions
 70
32
 62
256
  1
D58.0000
 10
-10.000000
 20
29.000000
 11
-12.000000
 21
0.000000
 53
90.000000
100
AcDbAlignedDimension
 13
0.000000
 23
-29.000000
 14
0.000000
 24
29.000000
 50
90.000000
100
AcDbRotatedDimension
  0
DIMENSION
  5
173
100
AcDbEntity
100
AcDbDimension
  8
Dimensions
 70
32
 62
256
  1
D29.0000
 10
626.000000
 20
14.500000
 11
624.000000
 21
0.000000
 53
90.000000
100
AcDbAlignedDimension
 13
500.000000
 23
-14.500000
 14
500.000000
 24
14.500000
 50
90.000000
100
AcDbRotatedDimension
  0
DIMENSION
  5
174
100
AcDbEntity
100
AcDbDimension
  8
Dimensions
 70
32
 62
256
 10
0.000000
 20
-48.363394
 11
218.523220
 21
-45.363394
100
AcDbAlignedDimension
 13
0.000000
 23
-29.000000
 14
437.046440
 24
-29.000000
 50
0.000000
100
AcDbRotatedDimension
  0
DIMENSION
  5
175
100
AcDbEntity
100
AcDbDimension
  8
Dimensions
 70
32
 62
256
 10
0.000000
 20
-58.363394
 11
250.000000
 21
-55.363394
100
AcDbAlignedDimension
 13
0.000000
 23
-29.000000
 14
500.000000
 24
-14.500000
 50
0.000000
100
AcDbRotatedDimension
  0
DIMENSION
  5
176
100
AcDbEntity
100
AcDbDimension
  8
Dimensions
 70
32
 62
256
 10
0.000000
 20
-68.363394
 11
308.000000
 21
-65.363394
100
AcDbAlignedDimension
 13
0.000000
 23
-29.000000
 14
616.000000
 24
-38.363394
 50
0.000000
100
AcDbRotatedDimension
  0
DIMENSION
  5
177
100
AcDbEntity
100
AcDbDimension
  8
Dimensions
 70
4
 62
256
  1
R109.3425
 10
437.046440
 20
-80.342461
 11
434.100920
 21
40.982741
100
AcDbRadialDimension
 15
437.546052
 25
28.998859
  0
DIMENSION
  5
178
100
AcDbEntity
100
AcDbDimension
  8
Dimensions
 70
4
 62
256
  1
R21.7500
 10
500.000000
 20
36.250000
 11
496.368671
 21
7.484308
100
AcDbRadialDimension
 15
499.900619
 25
14.500227
  0
DIMENSION
  5
179
100
AcDbEntity
100
AcDbDimension
  8
Dimensions
 70
2
 62
256
 10
492.561062
 20
0.000000
 11
445.443764
 21
16.804382
100
AcDb2LineAngularDimension
 13
492.561062
 23
15.811685
 14
474.443764
 24
22.405843
 15
474.443764
 25
0.000000
 16
445.443764
 26
16.804382
  0
LWPOLYLINE
  5
17A
100
AcDbEntity
100
AcDbPolyline
  8
0
 62
256
  6
ByLayer
370
-1
 70
0
 43
0.000000
 90
200
 10
500.000000
 20
14.500000
 10
500.005829
 20
14.501855
 10
500.011658
 20
14.503717
 10
500.017487
 20
14.505585
 10
500.023317
 20
14.507460
 10
500.029146
 20
14.509342
 10
500.034975
 20
14.511231
 10
500.040804
 20
14.513126
 10
500.046633
 20
14.515027
 10
500.052462
 20
14.517064
 10
500.058291
 20
14.519093
 10
500.087437
 20
14.529039
 10
500.116583
 20
14.538648
 10
500.145729
 20
14.547378
 10
500.174874
 20
14.555747
 10
500.204020
 20
14.564376
 10
500.233166
 20
14.573263
 10
500.262312
 20
14.582805
 10
500.291457
 20
14.592638
 10
500.320603
 20
14.602375
 10
500.349749
 20
14.612015
 10
500.378894
 20
14.621556
 10
500.408040
 20
14.630953
 10
500.437186
 20
14.640277
 10
500.466332
 20
14.649526
 10
500.495477
 20
14.658701
 10
500.553769
 20
14.676325
 10
500.612060
 20
14.693462
 10
500.670352
 20
14.711351
 10
500.728643
 20
14.730499
 10
500.786935
 20
14.750738
 10
500.845226
 20
14.770616
 10
500.903518
 20
14.790005
 10
500.961809
 20
14.808665
 10
501.020101
 20
14.827417
 10
501.078392
 20
14.846261
 10
501.136683
 20
14.864508
 10
501.194975
 20
14.883039
 10
501.253266
 20
14.902347
 10
501.311558
 20
14.922431
 10
501.369849
 20
14.945139
 10
501.428141
 20
14.967438
 10
501.486432
 20
14.989058
 10
501.544724
 20
15.009634
 10
501.603015
 20
15.028535
 10
501.661307
 20
15.047721
 10
501.719598
 20
15.067192
 10
501.777889
 20
15.086949
 10
501.836181
 20
15.107911
 10
501.894472
 20
15.128605
 10
501.952764
 20
15.149020
 10
502.011055
 20
15.169156
 10
502.069347
 20
15.188343
 10
502.127638
 20
15.207384
 10
502.185930
 20
15.226628
 10
502.244221
 20
15.246076
 10
502.302513
 20
15.265728
 10
502.360804
 20
15.285590
 10
502.419095
 20
15.305652
 10
502.477387
 20
15.325912
 10
502.535678
 20
15.346372
 10
502.593970
 20
15.367061
 10
502.652261
 20
15.387978
 10
502.710553
 20
15.409057
 10
502.768844
 20
15.430296
 10
502.827136
 20
15.451696
 10
502.885427
 20
15.473981
 10
502.943719
 20
15.496531
 10
503.002010
 20
15.518639
 10
503.060302
 20
15.540305
 10
503.118593
 20
15.561530
 10
503.176884
 20
15.581098
 10
503.235176
 20
15.600319
 10
503.293467
 20
15.619854
 10
503.351759
 20
15.639705
 10
503.410050
 20
15.659869
 10
504.318504
 20
15.990946
 10
505.226957
 20
16.329526
 10
506.135411
 20
16.672656
 10
507.043864
 20
17.025478
 10
507.952318
 20
17.371737
 10
508.860772
 20
17.720359
 10
509.769225
 20
18.073067
 10
510.677679
 20
18.425226
 10
511.586132
 20
18.775409
 10
512.494586
 20
19.129739
 10
513.403039
 20
19.481631
 10
514.311493
 20
19.831518
 10
515.219947
 20
20.181628
 10
516.128400
 20
20.528157
 10
517.036854
 20
20.872607
 10
517.945307
 20
21.216654
 10
518.853761
 20
21.554198
 10
519.762214
 20
21.889847
 10
520.670668
 20
22.220674
 10
521.579121
 20
22.551275
 10
522.487575
 20
22.876409
 10
523.396029
 20
23.200379
 10
524.304482
 20
23.521749
 10
525.212936
 20
23.835310
 10
526.121389
 20
24.147348
 10
527.029843
 20
24.454135
 10
527.938296
 20
24.762586
 10
528.846750
 20
25.062419
 10
529.755203
 20
25.358993
 10
530.663657
 20
25.648968
 10
531.572111
 20
25.937831
 10
532.480564
 20
26.225309
 10
533.389018
 20
26.500818
 10
534.297471
 20
26.784610
 10
535.205925
 20
27.052071
 10
536.114378
 20
27.317708
 10
537.022832
 20
27.581509
 10
537.931285
 20
27.843469
 10
538.839739
 20
28.104798
 10
539.748193
 20
28.351397
 10
540.656646
 20
28.601546
 10
541.565100
 20
28.843264
 10
542.473553
 20
29.091812
 10
543.382007
 20
29.324754
 10
544.290460
 20
29.559468
 10
545.198914
 20
29.788124
 10
546.107367
 20
30.014473
 10
547.015821
 20
30.233012
 10
547.924275
 20
30.450110
 10
548.832728
 20
30.665789
 10
549.741182
 20
30.880071
 10
550.649635
 20
31.094276
 10
551.558089
 20
31.291944
 10
552.466542
 20
31.496749
 10
553.374996
 20
31.690910
 10
554.283450
 20
31.895471
 10
555.191903
 20
32.080027
 10
556.100357
 20
32.263456
 10
557.008810
 20
32.452494
 10
557.917264
 20
32.639549
 10
558.825717
 20
32.817786
 10
559.734171
 20
32.985403
 10
560.642624
 20
33.165002
 10
561.551078
 20
33.329157
 10
562.459532
 20
33.494534
 10
563.367985
 20
33.667194
 10
564.276439
 20
33.823789
 10
565.184892
 20
33.979863
 10
566.093346
 20
34.135358
 10
567.001799
 20
34.291804
 10
567.910253
 20
34.433684
 10
568.818706
 20
34.583911
 10
569.727160
 20
34.726561
 10
570.635614
 20
34.868329
 10
571.544067
 20
35.004054
 10
572.452521
 20
35.139151
 10
573.360974
 20
35.274043
 10
574.269428
 20
35.409443
 10
575.177881
 20
35.532303
 10
576.086335
 20
35.658892
 10
576.994788
 20
35.790513
 10
577.903242
 20
35.900147
 10
578.811696
 20
36.024861
 10
579.720149
 20
36.139431
 10
580.628603
 20
36.247709
 10
581.537056
 20
36.365657
 10
582.445510
 20
36.472189
 10
583.353963
 20
36.579087
 10
584.262417
 20
36.686921
 10
585.170870
 20
36.783715
 10
586.079324
 20
36.887954
 10
586.987778
 20
36.983711
 10
587.896231
 20
37.080060
 10
588.804685
 20
37.176865
 10
589.713138
 20
37.261723
 10
590.621592
 20
37.354260
 10
591.530045
 20
37.446760
 10
592.438499
 20
37.524483
 10
593.346953
 20
37.620633
 10
594.255406
 20
37.691314
 10
595.163860
 20
37.770870
 10
596.072313
 20
37.852262
 10
596.980767
 20
37.925223
 10
597.889220
 20
38.006323
 10
598.797674
 20
38.075345
 10
599.706127
 20
38.148129
 10
600.614581
 20
38.210936
 10
601.523035
 20
38.279637
 10
602.431488
 20
38.341135
 10
603.339942
 20
38.410976
 10
604.248395
 20
38.468051
 10
605.156849
 20
38.530258
 10
606.065302
 20
38.589600
 10
606.973756
 20
38.642534
 10
607.882209
 20
38.711637
 10
608.790663
 20
38.754435
 10
609.699117
 20
38.809656
 10
610.607570
 20
38.859772
 10
611.516024
 20
38.912234
 10
612.424477
 20
38.954335
 10
613.332931
 20
38.998879
 10
614.241384
 20
39.045922
 10
615.149838
 20
39.096130
 10
616.000000
 20
39.127038
  0
LWPOLYLINE
  5
17B
100
AcDbEntity
100
AcDbPolyline
  8
0
 62
256
  6
ByLayer
370
-1
 70
0
 43
0.000000
 90
200
 10
500.000000
 20
-14.500000
 10
500.005829
 20
-14.501855
 10
500.011658
 20
-14.503717
 10
500.017487
 20
-14.505585
 10
500.023317
 20
-14.507460
 10
500.029146
 20
-14.509342
 10
500.034975
 20
-14.511231
 10
500.040804
 20
-14.513126
 10
500.046633
 20
-14.515027
 10
500.052462
 20
-14.517064
 10
500.058291
 20
-14.519093
 10
500.087437
 20
-14.529039
 10
500.116583
 20
-14.538648
 10
500.145729
 20
-14.547378
 10
500.174874
 20
-14.555747
 10
500.204020
 20
-14.564376
 10
500.233166
 20
-14.573263
 10
500.262312
 20
-14.582805
 10
500.291457
 20
-14.592638
 10
500.320603
 20
-14.602375
 10
500.349749
 20
-14.612015
 10
500.378894
 20
-14.621556
 10
500.408040
 20
-14.630953
 10
500.437186
 20
-14.640277
 10
500.466332
 20
-14.649526
 10
500.495477
 20
-14.658701
 10
500.553769
 20
-14.676325
 10
500.612060
 20
-14.693462
 10
500.670352
 20
-14.711351
 10
500.728643
 20
-14.730499
 10
500.786935
 20
-14.750738
 10
500.845226
 20
-14.770616
 10
500.903518
 20
-14.790005
 10
500.961809
 20
-14.808665
 10
501.020101
 20
-14.827417
 10
501.078392
 20
-14.846261
 10
501.136683
 20
-14.864508
 10
501.194975
 20
-14.883039
 10
501.253266
 20
-14.902347
 10
501.311558
 20
-14.922431
 10
501.369849
 20
-14.945139
 10
501.428141
 20
-14.967438
 10
501.486432
 20
-14.989058
 10
501.544724
 20
-15.009634
 10
501.603015
 20
-15.028535
 10
501.661307
 20
-15.047721
 10
501.719598
 20
-15.067192
 10
501.777889
 20
-15.086949
 10
501.836181
 20
-15.107911
 10
501.894472
 20
-15.128605
 10
501.952764
 20
-15.149020
 10
502.011055
 20
-15.169156
 10
502.069347
 20
-15.188343
 10
502.127638
 20
-15.207384
 10
502.185930
 20
-15.226628
 10
502.244221
 20
-15.246076
 10
502.302513
 20
-15.265728
 10
502.360804
 20
-15.285590
 10
502.419095
 20
-15.305652
 10
502.477387
 20
-15.325912
 10
502.535678
 20
-15.346372
 10
502.593970
 20
-15.367061
 10
502.652261
 20
-15.387978
 10
502.710553
 20
-15.409057
 10
502.768844
 20
-15.430296
 10
502.827136
 20
-15.451696
 10
502.885427
 20
-15.473981
 10
502.943719
 20
-15.496531
 10
503.002010
 20
-15.518639
 10
503.060302
 20
-15.540305
 10
503.118593
 20
-15.561530
 10
503.176884
 20
-15.581098
 10
503.235176
 20
-15.600319
 10
503.293467
 20
-15.619854
 10
503.351759
 20
-15.639705
 10
503.410050
 20
-15.659869
 10
504.318504
 20
-15.990946
 10
505.226957
 20
-16.329526
 10
506.135411
 20
-16.672656
 10
507.043864
 20
-17.025478
 10
507.952318
 20
-17.371737
 10
508.860772
 20
-17.720359
 10
509.769225
 20
-18.073067
 10
510.677679
 20
-18.425226
 10
511.586132
 20
-18.775409
 10
512.494586
 20
-19.129739
 10
513.403039
 20
-19.481631
 10
514.311493
 20
-19.831518
 10
515.219947
 20
-20.181628
 10
516.128400
 20
-20.528157
 10
517.036854
 20
-20.872607
 10
517.945307
 20
-21.216654
 10
518.853761
 20
-21.554198
 10
519.762214
 20
-21.889847
 10
520.670668
 20
-22.220674
 10
521.579121
 20
-22.551275
 10
522.487575
 20
-22.876409
 10
523.396029
 20
-23.200379
 10
524.304482
 20
-23.521749
 10
525.212936
 20
-23.835310
 10
526.121389
 20
-24.147348
 10
527.029843
 20
-24.454135
 10
527.938296
 20
-24.762586
 10
528.846750
 20
-25.062419
 10
529.755203
 20
-25.358993
 10
530.663657
 20
-25.648968
 10
531.572111
 20
-25.937831
 10
532.480564
 20
-26.225309
 10
533.389018
 20
-26.500818
 10
534.297471
 20
-26.784610
 10
535.205925
 20
-27.052071
 10
536.114378
 20
-27.317708
 10
537.022832
 20
-27.581509
 10
537.931285
 20
-27.843469
 10
538.839739
 20
-28.104798
 10
539.748193
 20
-28.351397
 10
540.656646
 20
-28.601546
 10
541.565100
 20
-28.843264
 10
542.473553
 20
-29.091812
 10
543.382007
 20
-29.324754
 10
544.290460
 20
-29.559468
 10
545.198914
 20
-29.788124
 10
546.107367
 20
-30.014473
 10
547.015821
 20
-30.233012
 10
547.924275
 20
-30.450110
 10
548.832728
 20
-30.665789
 10
549.741182
 20
-30.880071
 10
550.649635
 20
-31.094276
 10
551.558089
 20
-31.291944
 10
552.466542
 20
-31.496749
 10
553.374996
 20
-31.690910
 10
554.283450
 20
-31.895471
 10
555.191903
 20
-32.080027
 10
556.100357
 20
-32.263456
 10
557.008810
 20
-32.452494
 10
557.917264
 20
-32.639549
 10
558.825717
 20
-32.817786
 10
559.734171
 20
-32.985403
 10
560.642624
 20
-33.165002
 10
561.551078
 20
-33.329157
 10
562.459532
 20
-33.494534
 10
563.367985
 20
-33.667194
 10
564.276439
 20
-33.823789
 10
565.184892
 20
-33.979863
 10
566.093346
 20
-34.135358
 10
567.001799
 20
-34.291804
 10
567.910253
 20
-34.433684
 10
568.818706
 20
-34.583911
 10
569.727160
 20
-34.726561
 10
570.635614
 20
-34.868329
 10
571.544067
 20
-35.004054
 10
572.452521
 20
-35.139151
 10
573.360974
 20
-35.274043
 10
574.269428
 20
-35.409443
 10
575.177881
 20
-35.532303
 10
576.086335
 20
-35.658892
 10
576.994788
 20
-35.790513
 10
577.903242
 20
-35.900147
 10
578.811696
 20
-36.024861
 10
579.720149
 20
-36.139431
 10
580.628603
 20
-36.247709
 10
581.537056
 20
-36.365657
 10
582.445510
 20
-36.472189
 10
583.353963
 20
-36.579087
 10
584.262417
 20
-36.686921
 10
585.170870
 20
-36.783715
 10
586.079324
 20
-36.887954
 10
586.987778
 20
-36.983711
 10
587.896231
 20
-37.080060
 10
588.804685
 20
-37.176865
 10
589.713138
 20
-37.261723
 10
590.621592
 20
-37.354260
 10
591.530045
 20
-37.446760
 10
592.438499
 20
-37.524483
 10
593.346953
 20
-37.620633
 10
594.255406
 20
-37.691314
 10
595.163860
 20
-37.770870
 10
596.072313
 20
-37.852262
 10
596.980767
 20
-37.925223
 10
597.889220
 20
-38.006323
 10
598.797674
 20
-38.075345
 10
599.706127
 20
-38.148129
 10
600.614581
 20
-38.210936
 10
601.523035
 20
-38.279637
 10
602.431488
 20
-38.341135
 10
603.339942
 20
-38.410976
 10
604.248395
 20
-38.468051
 10
605.156849
 20
-38.530258
 10
606.065302
 20
-38.589600
 10
606.973756
 20
-38.642534
 10
607.882209
 20
-38.711637
 10
608.790663
 20
-38.754435
 10
609.699117
 20
-38.809656
 10
610.607570
 20
-38.859772
 10
611.516024
 20
-38.912234
 10
612.424477
 20
-38.954335
 10
613.332931
 20
-38.998879
 10
614.241384
 20
-39.045922
 10
615.149838
 20
-39.096130
 10
616.000000
 20
-39.127038
  0
DIMENSION
  5
17C
100
AcDbEntity
100
AcDbDimension
  8
Dimensions
 70
32
 62
256
  1
D76.7268
 10
636.000000
 20
0.000000
 11
634.000000
 21
0.000000
 53
90.000000
100
AcDbAlignedDimension
 13
616.000000
 23
-38.363394
 14
616.000000
 24
38.363394
 50
90.000000
100
AcDbRotatedDimension
  0
LINE
  5
17D
100
AcDbEntity
100
AcDbLine
  8
0
 62
3
  6
CENTER2
370
-1
 10
0.000000
 20
0.000000
 30
0.000000
 11
616.000000
 21
0.000000
 31
0.000000
  0
TEXT
  5
17E
100
AcDbEntity
  8
Dimensions
 62
3
  6
ByLayer
100
AcDbText
 10
0.000000
 20
-88.363394
 40
5.000000
  1
project 5mPa
 50
0.000000
100
AcDbText
  0
ENDBLK
  5
17F
100
AcDbEntity
  8
0
100
AcDbBlockEnd
  0
ENDSEC
  0
SECTION
  2
ENTITIES
  0
INSERT
  5
180
100
AcDbEntity
100
AcDbBlockReference
  8
0
 62
3
  6
ByLayer
  2
CHAMBER_COUNTOR
 10
0.000000
 20
0.000000
 42
1.000000
 43
1.000000
 44
1.000000
 45
1.000000
  0
ENDSEC
  0
SECTION
  2
OBJECTS
  0
DICTIONARY
  5
C
100
AcDbDictionary
280
0
281
1
  3
ACAD_GROUP
350
D
  3
ACAD_LAYOUT
350
1A
  3
ACAD_MLINESTYLE
350
17
  3
ACAD_PLOTSETTINGS
350
19
  3
ACAD_PLOTSTYLENAME
350
E
  3
AcDbVariableDictionary
350
73
  0
DICTIONARY
  5
D
100
AcDbDictionary
280
0
281
1
  0
ACDBDICTIONARYWDFLT
  5
E
100
AcDbDictionary
281
1
  3
Normal
350
F
100
AcDbDictionaryWithDefault
340
F
  0
ACDBPLACEHOLDER
  5
F
100
AcDbPlaceHolder
  0
DICTIONARY
  5
17
100
AcDbDictionary
280
0
281
1
  3
Standard
350
18
  0
MLINESTYLE
  5
18
100
AcDbMlineStyle
  2
STANDARD
 70
0
  3

 62
256
 51
90.0
 52
90.0
 71
2
 49
0.5
 62
256
  6
BYLAYER
 49
-0.5
 62
256
  6
BYLAYER
  0
DICTIONARY
  5
19
100
AcDbDictionary
280
0
281
1
  0
DICTIONARY
  5
1A
100
AcDbDictionary
281
1
  3
Layout1
350
1E
  3
Layout2
350
26
  3
Model
350
22
  0
ENDSEC
  0
EOF
