999
Created from RPA-4 - Tool for Rocket Propulsion Analysis
999
(C) 2009-2022 RP Software+Engineering UG
999
https://www.rocket-propulsion.com
999
HyRoE project F
  0
SECTION
  2
HEADER
  9
$ACADVER
  1
AC1014
  9
$HANDSEED
  5
FFFF
  9
$MEASUREMENT
 70
1
  9
$MEASUREINIT 
 70
1
  9
$INSUNITS
 70
4
  9
$DIMSTYLE
  2
Standard
  9
$DIMUNIT
 70
2
  9
$DIMTXT
 40
2.500000
  9
$DIMASZ
 40
2.500000
  9
$DIMEXE
 40
1.250000
  9
$DIMEXO
 40
0.625000
  9
$DIMGAP
 40
0.625000
  0
ENDSEC
  0
SECTION
  2
TABLES
  0
TABLE
  2
VPORT
  5
101
100
AcDbSymbolTable
  0
VPORT
  5
102
100
AcDbSymbolTableRecord
100
AcDbViewportTableRecord
  2
*Active
 70
0
 10
0.000000
 20
0.000000
 11
410.000000
 21
63.245553
 12
205.000000
 22
31.622777
 13
0.000000
 23
0.000000
 14
10.000000
 24
10.000000
 15
10.000000
 25
10.000000
 16
0.000000
 26
0.000000
 36
1.000000
 17
0.000000
 27
0.000000
 37
0.000000
 40
63.245553
 41
1.927984
 42
50.000000
 43
0.000000
 44
0.000000
 50
0.000000
 51
0.000000
 71
1
 72
100.000000
 73
1
 74
3
 75
1
 76
1
 77
0
 78
0
281
0
 65
1
  0
ENDTAB
  0
TABLE
  2
LTYPE
  5
103
100
AcDbSymbolTable
 70
10
  0
LTYPE
  5
104
100
AcDbSymbolTableRecord
100
AcDbLinetypeTableRecord
  2
ByBlock
 70
0
  3

 72
65
 73
0
 40
0.000000
  0
LTYPE
  5
105
100
AcDbSymbolTableRecord
100
AcDbLinetypeTableRecord
  2
ByLayer
 70
0
  3

 72
65
 73
0
 40
0.000000
  0
LTYPE
  5
106
100
AcDbSymbolTableRecord
100
AcDbLinetypeTableRecord
  2
CONTINUOUS
 70
0
  3
Solid line
 72
65
 73
0
 40
0.000000
  0
LTYPE
  5
107
100
AcDbSymbolTableRecord
100
AcDbLinetypeTableRecord
  2
DOT
 70
0
  3
Dot . . . . . . . . . . . . . . . . . . . . . .
 72
65
 73
2
 40
6.350000
 49
0.000000
 74
0.000000
 49
-6.350000
 74
0.000000
  0
LTYPE
  5
108
100
AcDbSymbolTableRecord
100
AcDbLinetypeTableRecord
  2
DOT2
 70
0
  3
Dot (.5x) .....................................
 72
65
 73
2
 40
3.175000
 49
0.000000
 74
0.000000
 49
-3.175000
 74
0.000000
  0
LTYPE
  5
109
100
AcDbSymbolTableRecord
100
AcDbLinetypeTableRecord
  2
DOTX2
 70
0
  3
Dot (2x) .  .  .  .  .  .  .  .  .  .  .  .  .
 72
65
 73
2
 40
12.700000
 49
0.000000
 74
0.000000
 49
-12.700000
 74
0.000000
  0
LTYPE
  5
10A
100
AcDbSymbolTableRecord
100
AcDbLinetypeTableRecord
  2
DASHED
 70
0
  3
Dashed __ __ __ __ __ __ __ __ __ __ __ __ __ _
 72
65
 73
2
 40
19.050000
 49
12.700000
 74
0.000000
 49
-6.350000
 74
0.000000
  0
LTYPE
  5
10B
100
AcDbSymbolTableRecord
100
AcDbLinetypeTableRecord
  2
DASHED2
 70
0
  3
Dashed (.5x) _ _ _ _ _ _ _ _ _ _ _ _ _ _ _ _ _
 72
65
 73
2
 40
9.525000
 49
6.350000
 74
0.000000
 49
-3.175000
 74
0.000000
  0
LTYPE
  5
10C
100
AcDbSymbolTableRecord
100
AcDbLinetypeTableRecord
  2
DASHDOT
 70
0
  3
Dash dot __ . __ . __ . __ . __ . __ . __ . __
 72
65
 73
4
 40
25.400000
 49
12.700000
 74
0.000000
 49
-6.350000
 74
0.000000
 49
0.000000
 74
0.000000
 49
-6.350000
 74
0.000000
  0
LTYPE
  5
10D
100
AcDbSymbolTableRecord
100
AcDbLinetypeTableRecord
  2
DASHDOT2
 70
0
  3
Dash dot (.5x) _._._._._._._._._._._._._._._.
 72
65
 73
4
 40
12.700000
 49
6.350000
 74
0.000000
 49
-3.175000
 74
0.000000
 49
0.000000
 74
0.000000
 49
-3.175000
 74
0.000000
  0
LTYPE
  5
10E
100
AcDbSymbolTableRecord
100
AcDbLinetypeTableRecord
  2
DASHDOTX2
 70
0
  3
Dash dot (2x) ____  .  ____  .  ____  .  ___
 72
65
 73
4
 40
50.800000
 49
25.400000
 74
0.000000
 49
-12.700000
 74
0.000000
 49
0.000000
 74
0.000000
 49
-12.700000
 74
0.000000
  0
LTYPE
  5
10F
100
AcDbSymbolTableRecord
100
AcDbLinetypeTableRecord
  2
DIVIDE
 70
0
  3
Divide ____ . . ____ . . ____ . . ____ . . ____
 72
65
 73
6
 40
31.750000
 49
12.700000
 74
0.000000
 49
-6.350000
 74
0.000000
 49
0.000000
 74
0.000000
 49
-6.350000
 74
0.000000
 49
0.000000
 74
0.000000
 49
-6.350000
 74
0.000000
  0
LTYPE
  5
110
100
AcDbSymbolTableRecord
100
AcDbLinetypeTableRecord
  2
DIVIDEX2
 70
0
  3
Divide (2x) ________  .  .  ________  .  .  _
 72
65
 73
6
 40
63.500000
 49
25.400000
 74
0.000000
 49
-12.700000
 74
0.000000
 49
0.000000
 74
0.000000
 49
-12.700000
 74
0.000000
 49
0.000000
 74
0.000000
 49
-12.700000
 74
0.000000
  0
LTYPE
  5
111
100
AcDbSymbolTableRecord
100
AcDbLinetypeTableRecord
  2
CENTER
 70
0
  3
Center ____ _ ____ _ ____ _ ____ _ ____ _ ____
 72
65
 73
4
 40
50.800000
 49
31.750000
 74
0.000000
 49
-6.350000
 74
0.000000
 49
6.350000
 74
0.000000
 49
-6.350000
 74
0.000000
  0
LTYPE
  5
112
100
AcDbSymbolTableRecord
100
AcDbLinetypeTableRecord
  2
CENTER2
 70
0
  3
Center (.5x) ___ _ ___ _ ___ _ ___ _ ___ _ ___
 72
65
 73
4
 40
28.575000
 49
19.050000
 74
0.000000
 49
-3.175000
 74
0.000000
 49
3.175000
 74
0.000000
 49
-3.175000
 74
0.000000
  0
LTYPE
  5
113
100
AcDbSymbolTableRecord
100
AcDbLinetypeTableRecord
  2
CENTERX2
 70
0
  3
Center (2x) ________  __  ________  __  _____
 72
65
 73
4
 40
101.600000
 49
63.500000
 74
0.000000
 49
-12.700000
 74
0.000000
 49
12.700000
 74
0.000000
 49
-12.700000
 74
0.000000
  0
LTYPE
  5
114
100
AcDbSymbolTableRecord
100
AcDbLinetypeTableRecord
  2
BORDER
 70
0
  3
Border __ __ . __ __ . __ __ . __ __ . __ __ .
 72
65
 73
6
 40
44.450000
 49
12.700000
 74
0.000000
 49
-6.350000
 74
0.000000
 49
12.700000
 74
0.000000
 49
-6.350000
 74
0.000000
 49
0.000000
 74
0.000000
 49
-6.350000
 74
0.000000
  0
LTYPE
  5
115
100
AcDbSymbolTableRecord
100
AcDbLinetypeTableRecord
  2
BORDER2
 70
0
  3
Border (.5x) __.__.__.__.__.__.__.__.__.__.__.
 72
65
 73
6
 40
22.225000
 49
6.350000
 74
0.000000
 49
-3.175000
 74
0.000000
 49
6.350000
 74
0.000000
 49
-3.175000
 74
0.000000
 49
0.000000
 74
0.000000
 49
-3.175000
 74
0.000000
  0
LTYPE
  5
116
100
AcDbSymbolTableRecord
100
AcDbLinetypeTableRecord
  2
BORDERX2
 70
0
  3
Border (2x) ____  ____  .  ____  ____  .  ___
 72
65
 73
6
 40
88.900000
 49
25.400000
 74
0.000000
 49
-12.700000
 74
0.000000
 49
25.400000
 74
0.000000
 49
-12.700000
 74
0.000000
 49
0.000000
 74
0.000000
 49
-12.700000
 74
0.000000
  0
ENDTAB
  0
TABLE
  2
LAYER
  5
117
100
AcDbSymbolTable
  0
LAYER
  5
118
100
AcDbSymbolTableRecord
100
AcDbLayerTableRecord
  2
0
 70
0
 62
1
  6
Continuous
390
F
  0
LAYER
  5
119
100
AcDbSymbolTableRecord
100
AcDbLayerTableRecord
  2
Dimensions
 70
0
 62
5
  6
Continuous
390
F
  0
ENDTAB
  0
TABLE
  2
STYLE
  5
11A
100
AcDbSymbolTable
  0
STYLE
  5
11B
100
AcDbSymbolTableRecord
100
AcDbTextStyleTableRecord
  2
Standard
  3
txt
 70
0
 71
0
 40
0.000000
 41
0.750000
 42
0.000000
 50
0.000000
  0
ENDTAB
  0
TABLE
  2
VIEW
  5
11C
100
AcDbSymbolTable
 70
0
 40
410.000000
 41
63.245553
  0
ENDTAB
  0
TABLE
  2
UCS
  5
11D
100
AcDbSymbolTable
 70
0
  0
ENDTAB
  0
TABLE
  2
APPID
  5
9
100
AcDbSymbolTable
 70
1
  0
APPID
  5
12
100
AcDbSymbolTableRecord
100
AcDbRegAppTableRecord
  2
ACAD
 70
0
  0
ENDTAB
  0
TABLE
  2
DIMSTYLE
  5
A
100
AcDbSymbolTable
 70
1
 71
0
  0
DIMSTYLE
105
27
100
AcDbSymbolTableRecord
100
AcDbDimStyleTableRecord
 70
0
  2
Standard
176
5
 46
0.000000
177
5
 44
1.250000
 42
0.625000
  6
ClosedFilled
  7
ClosedFilled
 41
2.500000
340
0
178
5
140
2.500000
 77
1
147
0.625000
  0
ENDTAB
  0
TABLE
  2
BLOCK_RECORD
  5
11E
100
AcDbSymbolTable
 70
1
  0
BLOCK_RECORD
  5
11F
100
AcDbSymbolTableRecord
100
AcDbBlockTableRecord
  2
*Model_Space
340
22
  0
BLOCK_RECORD
  5
120
100
AcDbSymbolTableRecord
100
AcDbBlockTableRecord
  2
*Paper_Space
340
1E
  0
BLOCK_RECORD
  5
121
100
AcDbSymbolTableRecord
100
AcDbBlockTableRecord
  2
*Paper_Space0
340
26
  0
BLOCK_RECORD
  5
122
100
AcDbSymbolTableRecord
100
AcDbBlockTableRecord
  2
CHAMBER_COUNTOR
340
26
  0
ENDTAB
  0
ENDSEC
  0
SECTION
  2
BLOCKS
  0
BLOCK
  5
123
100
AcDbEntity
  8
0
100
AcDbBlockBegin
  2
*Model_Space
 70
1
 10
0.000000
 20
0.000000
  3
*Model_Space
  0
ENDBLK
  5
124
100
AcDbEntity
  8
0
100
AcDbBlockEnd
  0
BLOCK
  5
125
100
AcDbEntity
  8
0
100
AcDbBlockBegin
  2
*Paper_Space
 70
1
 10
0.000000
 20
0.000000
  3
*Paper_Space
  0
ENDBLK
  5
126
100
AcDbEntity
  8
0
100
AcDbBlockEnd
  0
BLOCK
  5
127
100
AcDbEntity
  8
0
100
AcDbBlockBegin
  2
*Paper_Space0
 70
1
 10
0.000000
 20
0.000000
  3
*Paper_Space0
  0
ENDBLK
  5
128
100
AcDbEntity
  8
0
100
AcDbBlockEnd
  0
BLOCK
  5
129
100
AcDbEntity
  8
0
100
AcDbBlockBegin
  2
CHAMBER_COUNTOR
 70
1
 10
0.000000
 20
0.000000
  3
CHAMBER_COUNTOR
  0
LINE
  5
12A
100
AcDbEntity
100
AcDbLine
  8
0
 62
256
  6
ByLayer
370
-1
 10
0.000000
 20
22.360680
 30
0.000000
 11
243.561032
 21
22.360680
 31
0.000000
  0
LINE
  5
12B
100
AcDbEntity
100
AcDbLine
  8
0
 62
256
  6
ByLayer
370
-1
 10
0.000000
 20
-22.360680
 30
0.000000
 11
243.561032
 21
-22.360680
 31
0.000000
  0
ARC
  5
12C
100
AcDbEntity
100
AcDbCircle
  8
0
 62
256
  6
ByLayer
370
-1
 10
243.561032
 20
-55.119978
 40
77.480658
100
AcDbArc
 50
70.000000
 51
90.000000
  0
ARC
  5
12D
100
AcDbEntity
100
AcDbCircle
  8
0
 62
256
  6
ByLayer
370
-1
 10
243.561032
 20
55.119978
 40
77.480658
100
AcDbArc
 50
270.000000
 51
290.000000
  0
LINE
  5
12E
100
AcDbEntity
100
AcDbLine
  8
0
 62
256
  6
ByLayer
370
-1
 10
270.060978
 20
17.688024
 30
0.000000
 11
282.898993
 21
13.015369
 31
0.000000
  0
LINE
  5
12F
100
AcDbEntity
100
AcDbLine
  8
0
 62
256
  6
ByLayer
370
-1
 10
270.060978
 20
-17.688024
 30
0.000000
 11
282.898993
 21
-13.015369
 31
0.000000
  0
ARC
  5
130
100
AcDbEntity
100
AcDbCircle
  8
0
 62
256
  6
ByLayer
370
-1
 10
300.000000
 20
60.000000
 40
50.000000
100
AcDbArc
 50
250.000000
 51
270.000000
  0
ARC
  5
131
100
AcDbEntity
100
AcDbCircle
  8
0
 62
256
  6
ByLayer
370
-1
 10
300.000000
 20
-60.000000
 40
50.000000
100
AcDbArc
 50
90.000000
 51
110.000000
  0
DIMENSION
  5
132
100
AcDbEntity
100
AcDbDimension
  8
Dimensions
 70
32
 62
256
  1
D44.7214
 10
-10.000000
 20
22.360680
 11
-12.000000
 21
0.000000
 53
90.000000
100
AcDbAlignedDimension
 13
0.000000
 23
-22.360680
 14
0.000000
 24
22.360680
 50
90.000000
100
AcDbRotatedDimension
  0
DIMENSION
  5
133
100
AcDbEntity
100
AcDbDimension
  8
Dimensions
 70
32
 62
256
  1
D20.0000
 10
420.000000
 20
10.000000
 11
418.000000
 21
0.000000
 53
90.000000
100
AcDbAlignedDimension
 13
300.000000
 23
-10.000000
 14
300.000000
 24
10.000000
 50
90.000000
100
AcDbRotatedDimension
  0
DIMENSION
  5
134
100
AcDbEntity
100
AcDbDimension
  8
Dimensions
 70
32
 62
256
 10
0.000000
 20
-41.622777
 11
121.780516
 21
-38.622777
100
AcDbAlignedDimension
 13
0.000000
 23
-22.360680
 14
243.561032
 24
-22.360680
 50
0.000000
100
AcDbRotatedDimension
  0
DIMENSION
  5
135
100
AcDbEntity
100
AcDbDimension
  8
Dimensions
 70
32
 62
256
 10
0.000000
 20
-51.622777
 11
150.000000
 21
-48.622777
100
AcDbAlignedDimension
 13
0.000000
 23
-22.360680
 14
300.000000
 24
-10.000000
 50
0.000000
100
AcDbRotatedDimension
  0
DIMENSION
  5
136
100
AcDbEntity
100
AcDbDimension
  8
Dimensions
 70
32
 62
256
 10
0.000000
 20
-61.622777
 11
205.000000
 21
-58.622777
100
AcDbAlignedDimension
 13
0.000000
 23
-22.360680
 14
410.000000
 24
-31.622777
 50
0.000000
100
AcDbRotatedDimension
  0
DIMENSION
  5
137
100
AcDbEntity
100
AcDbDimension
  8
Dimensions
 70
4
 62
256
  1
R77.4807
 10
243.561032
 20
-55.119978
 11
240.469928
 21
34.343753
100
AcDbRadialDimension
 15
243.915060
 25
22.359871
  0
DIMENSION
  5
138
100
AcDbEntity
100
AcDbDimension
  8
Dimensions
 70
4
 62
256
  1
R50.0000
 10
300.000000
 20
60.000000
 11
296.239590
 21
2.984603
100
AcDbRadialDimension
 15
299.771538
 25
10.000522
  0
DIMENSION
  5
139
100
AcDbEntity
100
AcDbDimension
  8
Dimensions
 70
2
 62
256
 10
282.898993
 20
0.000000
 11
247.700298
 21
13.266018
100
AcDb2LineAngularDimension
 13
282.898993
 23
13.015369
 14
270.060978
 24
17.688024
 15
270.060978
 25
0.000000
 16
247.700298
 26
13.266018
  0
LWPOLYLINE
  5
13A
100
AcDbEntity
100
AcDbPolyline
  8
0
 62
256
  6
ByLayer
370
-1
 70
0
 43
0.000000
 90
200
 10
300.000000
 20
10.000000
 10
300.005528
 20
10.001811
 10
300.011055
 20
10.003629
 10
300.016583
 20
10.005456
 10
300.022111
 20
10.007290
 10
300.027638
 20
10.009132
 10
300.033166
 20
10.010981
 10
300.038693
 20
10.012839
 10
300.044221
 20
10.014825
 10
300.049749
 20
10.016798
 10
300.055276
 20
10.018758
 10
300.082915
 20
10.028356
 10
300.110553
 20
10.037455
 10
300.138191
 20
10.045326
 10
300.165829
 20
10.053795
 10
300.193467
 20
10.062863
 10
300.221106
 20
10.073649
 10
300.248744
 20
10.084757
 10
300.276382
 20
10.095322
 10
300.304020
 20
10.105343
 10
300.331658
 20
10.113413
 10
300.359296
 20
10.121514
 10
300.386935
 20
10.129864
 10
300.414573
 20
10.138461
 10
300.442211
 20
10.147312
 10
300.469849
 20
10.156805
 10
300.525126
 20
10.175950
 10
300.580402
 20
10.195307
 10
300.635678
 20
10.215364
 10
300.690955
 20
10.235111
 10
300.746231
 20
10.254285
 10
300.801508
 20
10.272559
 10
300.856784
 20
10.291355
 10
300.912060
 20
10.310727
 10
300.967337
 20
10.331092
 10
301.022613
 20
10.351465
 10
301.077889
 20
10.371847
 10
301.133166
 20
10.392589
 10
301.188442
 20
10.413090
 10
301.243719
 20
10.433282
 10
301.298995
 20
10.452697
 10
301.354271
 20
10.471739
 10
301.409548
 20
10.491077
 10
301.464824
 20
10.510711
 10
301.520101
 20
10.530686
 10
301.575377
 20
10.550937
 10
301.630653
 20
10.571448
 10
301.685930
 20
10.592217
 10
301.741206
 20
10.614018
 10
301.796482
 20
10.635572
 10
301.851759
 20
10.656832
 10
301.907035
 20
10.677716
 10
301.962312
 20
10.697634
 10
302.017588
 20
10.717756
 10
302.072864
 20
10.738080
 10
302.128141
 20
10.758608
 10
302.183417
 20
10.779397
 10
302.238693
 20
10.800360
 10
302.293970
 20
10.821487
 10
302.349246
 20
10.842777
 10
302.404523
 20
10.864715
 10
302.459799
 20
10.886765
 10
302.515075
 20
10.908561
 10
302.570352
 20
10.930104
 10
302.625628
 20
10.951149
 10
302.680905
 20
10.971605
 10
302.736181
 20
10.992189
 10
302.791457
 20
11.012900
 10
302.846734
 20
11.033739
 10
302.902010
 20
11.054711
 10
302.957286
 20
11.075811
 10
303.012563
 20
11.097033
 10
303.067839
 20
11.118379
 10
303.123116
 20
11.139847
 10
303.178392
 20
11.161783
 10
303.233668
 20
11.183675
 10
304.095133
 20
11.524819
 10
304.956598
 20
11.869077
 10
305.818062
 20
12.216597
 10
306.679527
 20
12.572304
 10
307.540991
 20
12.922484
 10
308.402456
 20
13.270471
 10
309.263920
 20
13.622236
 10
310.125385
 20
13.970239
 10
310.986850
 20
14.318434
 10
311.848314
 20
14.665322
 10
312.709779
 20
15.011715
 10
313.571243
 20
15.349726
 10
314.432708
 20
15.687505
 10
315.294172
 20
16.020151
 10
316.155637
 20
16.351592
 10
317.017102
 20
16.677186
 10
317.878566
 20
17.000862
 10
318.740031
 20
17.311910
 10
319.601495
 20
17.623784
 10
320.462960
 20
17.930034
 10
321.324425
 20
18.233842
 10
322.185889
 20
18.531690
 10
323.047354
 20
18.824393
 10
323.908818
 20
19.113361
 10
324.770283
 20
19.395244
 10
325.631747
 20
19.677621
 10
326.493212
 20
19.953296
 10
327.354677
 20
20.220624
 10
328.216141
 20
20.485113
 10
329.077606
 20
20.745017
 10
329.939070
 20
21.002590
 10
330.800535
 20
21.257833
 10
331.662000
 20
21.499749
 10
332.523464
 20
21.749362
 10
333.384929
 20
21.988219
 10
334.246393
 20
22.221668
 10
335.107858
 20
22.447884
 10
335.969322
 20
22.672299
 10
336.830787
 20
22.899190
 10
337.692252
 20
23.113151
 10
338.553716
 20
23.330486
 10
339.415181
 20
23.541224
 10
340.276645
 20
23.748326
 10
341.138110
 20
23.947699
 10
341.999574
 20
24.152283
 10
342.861039
 20
24.347029
 10
343.722504
 20
24.539132
 10
344.583968
 20
24.724212
 10
345.445433
 20
24.906122
 10
346.306897
 20
25.087209
 10
347.168362
 20
25.271064
 10
348.029827
 20
25.445207
 10
348.891291
 20
25.614548
 10
349.752756
 20
25.785153
 10
350.614220
 20
25.950561
 10
351.475685
 20
26.112170
 10
352.337149
 20
26.272667
 10
353.198614
 20
26.426565
 10
354.060079
 20
26.579086
 10
354.921543
 20
26.733674
 10
355.783008
 20
26.873045
 10
356.644472
 20
27.025013
 10
357.505937
 20
27.164054
 10
358.367402
 20
27.302405
 10
359.228866
 20
27.441042
 10
360.090331
 20
27.568851
 10
360.951795
 20
27.702921
 10
361.813260
 20
27.833432
 10
362.674724
 20
27.954673
 10
363.536189
 20
28.074954
 10
364.397654
 20
28.194991
 10
365.259118
 20
28.314786
 10
366.120583
 20
28.434586
 10
366.982047
 20
28.546633
 10
367.843512
 20
28.662696
 10
368.704976
 20
28.769647
 10
369.566441
 20
28.876563
 10
370.427906
 20
28.973754
 10
371.289370
 20
29.077538
 10
372.150835
 20
29.176609
 10
373.012299
 20
29.275665
 10
373.873764
 20
29.370374
 10
374.735229
 20
29.465952
 10
375.596693
 20
29.555846
 10
376.458158
 20
29.639810
 10
377.319622
 20
29.733670
 10
378.181087
 20
29.819761
 10
379.042551
 20
29.899103
 10
379.904016
 20
29.983326
 10
380.765481
 20
30.060933
 10
381.626945
 20
30.139053
 10
382.488410
 20
30.210228
 10
383.349874
 20
30.294711
 10
384.211339
 20
30.358974
 10
385.072804
 20
30.429526
 10
385.934268
 20
30.502485
 10
386.795733
 20
30.562386
 10
387.657197
 20
30.632854
 10
388.518662
 20
30.693035
 10
389.380126
 20
30.760446
 10
390.241591
 20
30.817246
 10
391.103056
 20
30.872832
 10
391.964520
 20
30.927387
 10
392.825985
 20
30.983353
 10
393.687449
 20
31.038966
 10
394.548914
 20
31.090305
 10
395.410379
 20
31.143755
 10
396.271843
 20
31.193329
 10
397.133308
 20
31.236505
 10
397.994772
 20
31.285875
 10
398.856237
 20
31.334823
 10
399.717701
 20
31.379976
 10
400.579166
 20
31.417417
 10
401.440631
 20
31.456808
 10
402.302095
 20
31.498196
 10
403.163560
 20
31.540762
 10
404.025024
 20
31.571296
 10
404.886489
 20
31.605827
 10
405.747953
 20
31.643826
 10
406.609418
 20
31.675857
 10
407.470883
 20
31.705075
 10
408.332347
 20
31.736972
 10
409.193812
 20
31.771641
 10
410.000000
 20
31.790244
  0
LWPOLYLINE
  5
13B
100
AcDbEntity
100
AcDbPolyline
  8
0
 62
256
  6
ByLayer
370
-1
 70
0
 43
0.000000
 90
200
 10
300.000000
 20
-10.000000
 10
300.005528
 20
-10.001811
 10
300.011055
 20
-10.003629
 10
300.016583
 20
-10.005456
 10
300.022111
 20
-10.007290
 10
300.027638
 20
-10.009132
 10
300.033166
 20
-10.010981
 10
300.038693
 20
-10.012839
 10
300.044221
 20
-10.014825
 10
300.049749
 20
-10.016798
 10
300.055276
 20
-10.018758
 10
300.082915
 20
-10.028356
 10
300.110553
 20
-10.037455
 10
300.138191
 20
-10.045326
 10
300.165829
 20
-10.053795
 10
300.193467
 20
-10.062863
 10
300.221106
 20
-10.073649
 10
300.248744
 20
-10.084757
 10
300.276382
 20
-10.095322
 10
300.304020
 20
-10.105343
 10
300.331658
 20
-10.113413
 10
300.359296
 20
-10.121514
 10
300.386935
 20
-10.129864
 10
300.414573
 20
-10.138461
 10
300.442211
 20
-10.147312
 10
300.469849
 20
-10.156805
 10
300.525126
 20
-10.175950
 10
300.580402
 20
-10.195307
 10
300.635678
 20
-10.215364
 10
300.690955
 20
-10.235111
 10
300.746231
 20
-10.254285
 10
300.801508
 20
-10.272559
 10
300.856784
 20
-10.291355
 10
300.912060
 20
-10.310727
 10
300.967337
 20
-10.331092
 10
301.022613
 20
-10.351465
 10
301.077889
 20
-10.371847
 10
301.133166
 20
-10.392589
 10
301.188442
 20
-10.413090
 10
301.243719
 20
-10.433282
 10
301.298995
 20
-10.452697
 10
301.354271
 20
-10.471739
 10
301.409548
 20
-10.491077
 10
301.464824
 20
-10.510711
 10
301.520101
 20
-10.530686
 10
301.575377
 20
-10.550937
 10
301.630653
 20
-10.571448
 10
301.685930
 20
-10.592217
 10
301.741206
 20
-10.614018
 10
301.796482
 20
-10.635572
 10
301.851759
 20
-10.656832
 10
301.907035
 20
-10.677716
 10
301.962312
 20
-10.697634
 10
302.017588
 20
-10.717756
 10
302.072864
 20
-10.738080
 10
302.128141
 20
-10.758608
 10
302.183417
 20
-10.779397
 10
302.238693
 20
-10.800360
 10
302.293970
 20
-10.821487
 10
302.349246
 20
-10.842777
 10
302.404523
 20
-10.864715
 10
302.459799
 20
-10.886765
 10
302.515075
 20
-10.908561
 10
302.570352
 20
-10.930104
 10
302.625628
 20
-10.951149
 10
302.680905
 20
-10.971605
 10
302.736181
 20
-10.992189
 10
302.791457
 20
-11.012900
 10
302.846734
 20
-11.033739
 10
302.902010
 20
-11.054711
 10
302.957286
 20
-11.075811
 10
303.012563
 20
-11.097033
 10
303.067839
 20
-11.118379
 10
303.123116
 20
-11.139847
 10
303.178392
 20
-11.161783
 10
303.233668
 20
-11.183675
 10
304.095133
 20
-11.524819
 10
304.956598
 20
-11.869077
 10
305.818062
 20
-12.216597
 10
306.679527
 20
-12.572304
 10
307.540991
 20
-12.922484
 10
308.402456
 20
-13.270471
 10
309.263920
 20
-13.622236
 10
310.125385
 20
-13.970239
 10
310.986850
 20
-14.318434
 10
311.848314
 20
-14.665322
 10
312.709779
 20
-15.011715
 10
313.571243
 20
-15.349726
 10
314.432708
 20
-15.687505
 10
315.294172
 20
-16.020151
 10
316.155637
 20
-16.351592
 10
317.017102
 20
-16.677186
 10
317.878566
 20
-17.000862
 10
318.740031
 20
-17.311910
 10
319.601495
 20
-17.623784
 10
320.462960
 20
-17.930034
 10
321.324425
 20
-18.233842
 10
322.185889
 20
-18.531690
 10
323.047354
 20
-18.824393
 10
323.908818
 20
-19.113361
 10
324.770283
 20
-19.395244
 10
325.631747
 20
-19.677621
 10
326.493212
 20
-19.953296
 10
327.354677
 20
-20.220624
 10
328.216141
 20
-20.485113
 10
329.077606
 20
-20.745017
 10
329.939070
 20
-21.002590
 10
330.800535
 20
-21.257833
 10
331.662000
 20
-21.499749
 10
332.523464
 20
-21.749362
 10
333.384929
 20
-21.988219
 10
334.246393
 20
-22.221668
 10
335.107858
 20
-22.447884
 10
335.969322
 20
-22.672299
 10
336.830787
 20
-22.899190
 10
337.692252
 20
-23.113151
 10
338.553716
 20
-23.330486
 10
339.415181
 20
-23.541224
 10
340.276645
 20
-23.748326
 10
341.138110
 20
-23.947699
 10
341.999574
 20
-24.152283
 10
342.861039
 20
-24.347029
 10
343.722504
 20
-24.539132
 10
344.583968
 20
-24.724212
 10
345.445433
 20
-24.906122
 10
346.306897
 20
-25.087209
 10
347.168362
 20
-25.271064
 10
348.029827
 20
-25.445207
 10
348.891291
 20
-25.614548
 10
349.752756
 20
-25.785153
 10
350.614220
 20
-25.950561
 10
351.475685
 20
-26.112170
 10
352.337149
 20
-26.272667
 10
353.198614
 20
-26.426565
 10
354.060079
 20
-26.579086
 10
354.921543
 20
-26.733674
 10
355.783008
 20
-26.873045
 10
356.644472
 20
-27.025013
 10
357.505937
 20
-27.164054
 10
358.367402
 20
-27.302405
 10
359.228866
 20
-27.441042
 10
360.090331
 20
-27.568851
 10
360.951795
 20
-27.702921
 10
361.813260
 20
-27.833432
 10
362.674724
 20
-27.954673
 10
363.536189
 20
-28.074954
 10
364.397654
 20
-28.194991
 10
365.259118
 20
-28.314786
 10
366.120583
 20
-28.434586
 10
366.982047
 20
-28.546633
 10
367.843512
 20
-28.662696
 10
368.704976
 20
-28.769647
 10
369.566441
 20
-28.876563
 10
370.427906
 20
-28.973754
 10
371.289370
 20
-29.077538
 10
372.150835
 20
-29.176609
 10
373.012299
 20
-29.275665
 10
373.873764
 20
-29.370374
 10
374.735229
 20
-29.465952
 10
375.596693
 20
-29.555846
 10
376.458158
 20
-29.639810
 10
377.319622
 20
-29.733670
 10
378.181087
 20
-29.819761
 10
379.042551
 20
-29.899103
 10
379.904016
 20
-29.983326
 10
380.765481
 20
-30.060933
 10
381.626945
 20
-30.139053
 10
382.488410
 20
-30.210228
 10
383.349874
 20
-30.294711
 10
384.211339
 20
-30.358974
 10
385.072804
 20
-30.429526
 10
385.934268
 20
-30.502485
 10
386.795733
 20
-30.562386
 10
387.657197
 20
-30.632854
 10
388.518662
 20
-30.693035
 10
389.380126
 20
-30.760446
 10
390.241591
 20
-30.817246
 10
391.103056
 20
-30.872832
 10
391.964520
 20
-30.927387
 10
392.825985
 20
-30.983353
 10
393.687449
 20
-31.038966
 10
394.548914
 20
-31.090305
 10
395.410379
 20
-31.143755
 10
396.271843
 20
-31.193329
 10
397.133308
 20
-31.236505
 10
397.994772
 20
-31.285875
 10
398.856237
 20
-31.334823
 10
399.717701
 20
-31.379976
 10
400.579166
 20
-31.417417
 10
401.440631
 20
-31.456808
 10
402.302095
 20
-31.498196
 10
403.163560
 20
-31.540762
 10
404.025024
 20
-31.571296
 10
404.886489
 20
-31.605827
 10
405.747953
 20
-31.643826
 10
406.609418
 20
-31.675857
 10
407.470883
 20
-31.705075
 10
408.332347
 20
-31.736972
 10
409.193812
 20
-31.771641
 10
410.000000
 20
-31.790244
  0
DIMENSION
  5
13C
100
AcDbEntity
100
AcDbDimension
  8
Dimensions
 70
32
 62
256
  1
D63.2456
 10
430.000000
 20
0.000000
 11
428.000000
 21
0.000000
 53
90.000000
100
AcDbAlignedDimension
 13
410.000000
 23
-31.622777
 14
410.000000
 24
31.622777
 50
90.000000
100
AcDbRotatedDimension
  0
LINE
  5
13D
100
AcDbEntity
100
AcDbLine
  8
0
 62
3
  6
CENTER2
370
-1
 10
0.000000
 20
0.000000
 30
0.000000
 11
410.000000
 21
0.000000
 31
0.000000
  0
TEXT
  5
13E
100
AcDbEntity
  8
Dimensions
 62
3
  6
ByLayer
100
AcDbText
 10
0.000000
 20
-81.622777
 40
5.000000
  1
HyRoE project F
 50
0.000000
100
AcDbText
  0
ENDBLK
  5
13F
100
AcDbEntity
  8
0
100
AcDbBlockEnd
  0
ENDSEC
  0
SECTION
  2
ENTITIES
  0
INSERT
  5
140
100
AcDbEntity
100
AcDbBlockReference
  8
0
 62
3
  6
ByLayer
  2
CHAMBER_COUNTOR
 10
0.000000
 20
0.000000
 42
1.000000
 43
1.000000
 44
1.000000
 45
1.000000
  0
ENDSEC
  0
SECTION
  2
OBJECTS
  0
DICTIONARY
  5
C
100
AcDbDictionary
280
0
281
1
  3
ACAD_GROUP
350
D
  3
ACAD_LAYOUT
350
1A
  3
ACAD_MLINESTYLE
350
17
  3
ACAD_PLOTSETTINGS
350
19
  3
ACAD_PLOTSTYLENAME
350
E
  3
AcDbVariableDictionary
350
73
  0
DICTIONARY
  5
D
100
AcDbDictionary
280
0
281
1
  0
ACDBDICTIONARYWDFLT
  5
E
100
AcDbDictionary
281
1
  3
Normal
350
F
100
AcDbDictionaryWithDefault
340
F
  0
ACDBPLACEHOLDER
  5
F
100
AcDbPlaceHolder
  0
DICTIONARY
  5
17
100
AcDbDictionary
280
0
281
1
  3
Standard
350
18
  0
MLINESTYLE
  5
18
100
AcDbMlineStyle
  2
STANDARD
 70
0
  3

 62
256
 51
90.0
 52
90.0
 71
2
 49
0.5
 62
256
  6
BYLAYER
 49
-0.5
 62
256
  6
BYLAYER
  0
DICTIONARY
  5
19
100
AcDbDictionary
280
0
281
1
  0
DICTIONARY
  5
1A
100
AcDbDictionary
281
1
  3
Layout1
350
1E
  3
Layout2
350
26
  3
Model
350
22
  0
ENDSEC
  0
EOF
