999
Created from RPA-4 - Tool for Rocket Propulsion Analysis
999
(C) 2009-2022 RP Software+Engineering UG
999
https://www.rocket-propulsion.com
999
HyRoE project 2kN
  0
SECTION
  2
HEADER
  9
$ACADVER
  1
AC1014
  9
$HANDSEED
  5
FFFF
  9
$MEASUREMENT
 70
1
  9
$MEASUREINIT 
 70
1
  9
$INSUNITS
 70
4
  9
$DIMSTYLE
  2
Standard
  9
$DIMUNIT
 70
2
  9
$DIMTXT
 40
2.500000
  9
$DIMASZ
 40
2.500000
  9
$DIMEXE
 40
1.250000
  9
$DIMEXO
 40
0.625000
  9
$DIMGAP
 40
0.625000
  0
ENDSEC
  0
SECTION
  2
TABLES
  0
TABLE
  2
VPORT
  5
101
100
AcDbSymbolTable
  0
VPORT
  5
102
100
AcDbSymbolTableRecord
100
AcDbViewportTableRecord
  2
*Active
 70
0
 10
0.000000
 20
0.000000
 11
661.610832
 21
53.200763
 12
330.805416
 22
26.600382
 13
0.000000
 23
0.000000
 14
10.000000
 24
10.000000
 15
10.000000
 25
10.000000
 16
0.000000
 26
0.000000
 36
1.000000
 17
0.000000
 27
0.000000
 37
0.000000
 40
53.200763
 41
1.927984
 42
50.000000
 43
0.000000
 44
0.000000
 50
0.000000
 51
0.000000
 71
1
 72
100.000000
 73
1
 74
3
 75
1
 76
1
 77
0
 78
0
281
0
 65
1
  0
ENDTAB
  0
TABLE
  2
LTYPE
  5
103
100
AcDbSymbolTable
 70
10
  0
LTYPE
  5
104
100
AcDbSymbolTableRecord
100
AcDbLinetypeTableRecord
  2
ByBlock
 70
0
  3

 72
65
 73
0
 40
0.000000
  0
LTYPE
  5
105
100
AcDbSymbolTableRecord
100
AcDbLinetypeTableRecord
  2
ByLayer
 70
0
  3

 72
65
 73
0
 40
0.000000
  0
LTYPE
  5
106
100
AcDbSymbolTableRecord
100
AcDbLinetypeTableRecord
  2
CONTINUOUS
 70
0
  3
Solid line
 72
65
 73
0
 40
0.000000
  0
LTYPE
  5
107
100
AcDbSymbolTableRecord
100
AcDbLinetypeTableRecord
  2
DOT
 70
0
  3
Dot . . . . . . . . . . . . . . . . . . . . . .
 72
65
 73
2
 40
6.350000
 49
0.000000
 74
0.000000
 49
-6.350000
 74
0.000000
  0
LTYPE
  5
108
100
AcDbSymbolTableRecord
100
AcDbLinetypeTableRecord
  2
DOT2
 70
0
  3
Dot (.5x) .....................................
 72
65
 73
2
 40
3.175000
 49
0.000000
 74
0.000000
 49
-3.175000
 74
0.000000
  0
LTYPE
  5
109
100
AcDbSymbolTableRecord
100
AcDbLinetypeTableRecord
  2
DOTX2
 70
0
  3
Dot (2x) .  .  .  .  .  .  .  .  .  .  .  .  .
 72
65
 73
2
 40
12.700000
 49
0.000000
 74
0.000000
 49
-12.700000
 74
0.000000
  0
LTYPE
  5
10A
100
AcDbSymbolTableRecord
100
AcDbLinetypeTableRecord
  2
DASHED
 70
0
  3
Dashed __ __ __ __ __ __ __ __ __ __ __ __ __ _
 72
65
 73
2
 40
19.050000
 49
12.700000
 74
0.000000
 49
-6.350000
 74
0.000000
  0
LTYPE
  5
10B
100
AcDbSymbolTableRecord
100
AcDbLinetypeTableRecord
  2
DASHED2
 70
0
  3
Dashed (.5x) _ _ _ _ _ _ _ _ _ _ _ _ _ _ _ _ _
 72
65
 73
2
 40
9.525000
 49
6.350000
 74
0.000000
 49
-3.175000
 74
0.000000
  0
LTYPE
  5
10C
100
AcDbSymbolTableRecord
100
AcDbLinetypeTableRecord
  2
DASHDOT
 70
0
  3
Dash dot __ . __ . __ . __ . __ . __ . __ . __
 72
65
 73
4
 40
25.400000
 49
12.700000
 74
0.000000
 49
-6.350000
 74
0.000000
 49
0.000000
 74
0.000000
 49
-6.350000
 74
0.000000
  0
LTYPE
  5
10D
100
AcDbSymbolTableRecord
100
AcDbLinetypeTableRecord
  2
DASHDOT2
 70
0
  3
Dash dot (.5x) _._._._._._._._._._._._._._._.
 72
65
 73
4
 40
12.700000
 49
6.350000
 74
0.000000
 49
-3.175000
 74
0.000000
 49
0.000000
 74
0.000000
 49
-3.175000
 74
0.000000
  0
LTYPE
  5
10E
100
AcDbSymbolTableRecord
100
AcDbLinetypeTableRecord
  2
DASHDOTX2
 70
0
  3
Dash dot (2x) ____  .  ____  .  ____  .  ___
 72
65
 73
4
 40
50.800000
 49
25.400000
 74
0.000000
 49
-12.700000
 74
0.000000
 49
0.000000
 74
0.000000
 49
-12.700000
 74
0.000000
  0
LTYPE
  5
10F
100
AcDbSymbolTableRecord
100
AcDbLinetypeTableRecord
  2
DIVIDE
 70
0
  3
Divide ____ . . ____ . . ____ . . ____ . . ____
 72
65
 73
6
 40
31.750000
 49
12.700000
 74
0.000000
 49
-6.350000
 74
0.000000
 49
0.000000
 74
0.000000
 49
-6.350000
 74
0.000000
 49
0.000000
 74
0.000000
 49
-6.350000
 74
0.000000
  0
LTYPE
  5
110
100
AcDbSymbolTableRecord
100
AcDbLinetypeTableRecord
  2
DIVIDEX2
 70
0
  3
Divide (2x) ________  .  .  ________  .  .  _
 72
65
 73
6
 40
63.500000
 49
25.400000
 74
0.000000
 49
-12.700000
 74
0.000000
 49
0.000000
 74
0.000000
 49
-12.700000
 74
0.000000
 49
0.000000
 74
0.000000
 49
-12.700000
 74
0.000000
  0
LTYPE
  5
111
100
AcDbSymbolTableRecord
100
AcDbLinetypeTableRecord
  2
CENTER
 70
0
  3
Center ____ _ ____ _ ____ _ ____ _ ____ _ ____
 72
65
 73
4
 40
50.800000
 49
31.750000
 74
0.000000
 49
-6.350000
 74
0.000000
 49
6.350000
 74
0.000000
 49
-6.350000
 74
0.000000
  0
LTYPE
  5
112
100
AcDbSymbolTableRecord
100
AcDbLinetypeTableRecord
  2
CENTER2
 70
0
  3
Center (.5x) ___ _ ___ _ ___ _ ___ _ ___ _ ___
 72
65
 73
4
 40
28.575000
 49
19.050000
 74
0.000000
 49
-3.175000
 74
0.000000
 49
3.175000
 74
0.000000
 49
-3.175000
 74
0.000000
  0
LTYPE
  5
113
100
AcDbSymbolTableRecord
100
AcDbLinetypeTableRecord
  2
CENTERX2
 70
0
  3
Center (2x) ________  __  ________  __  _____
 72
65
 73
4
 40
101.600000
 49
63.500000
 74
0.000000
 49
-12.700000
 74
0.000000
 49
12.700000
 74
0.000000
 49
-12.700000
 74
0.000000
  0
LTYPE
  5
114
100
AcDbSymbolTableRecord
100
AcDbLinetypeTableRecord
  2
BORDER
 70
0
  3
Border __ __ . __ __ . __ __ . __ __ . __ __ .
 72
65
 73
6
 40
44.450000
 49
12.700000
 74
0.000000
 49
-6.350000
 74
0.000000
 49
12.700000
 74
0.000000
 49
-6.350000
 74
0.000000
 49
0.000000
 74
0.000000
 49
-6.350000
 74
0.000000
  0
LTYPE
  5
115
100
AcDbSymbolTableRecord
100
AcDbLinetypeTableRecord
  2
BORDER2
 70
0
  3
Border (.5x) __.__.__.__.__.__.__.__.__.__.__.
 72
65
 73
6
 40
22.225000
 49
6.350000
 74
0.000000
 49
-3.175000
 74
0.000000
 49
6.350000
 74
0.000000
 49
-3.175000
 74
0.000000
 49
0.000000
 74
0.000000
 49
-3.175000
 74
0.000000
  0
LTYPE
  5
116
100
AcDbSymbolTableRecord
100
AcDbLinetypeTableRecord
  2
BORDERX2
 70
0
  3
Border (2x) ____  ____  .  ____  ____  .  ___
 72
65
 73
6
 40
88.900000
 49
25.400000
 74
0.000000
 49
-12.700000
 74
0.000000
 49
25.400000
 74
0.000000
 49
-12.700000
 74
0.000000
 49
0.000000
 74
0.000000
 49
-12.700000
 74
0.000000
  0
ENDTAB
  0
TABLE
  2
LAYER
  5
117
100
AcDbSymbolTable
  0
LAYER
  5
118
100
AcDbSymbolTableRecord
100
AcDbLayerTableRecord
  2
0
 70
0
 62
1
  6
Continuous
390
F
  0
LAYER
  5
119
100
AcDbSymbolTableRecord
100
AcDbLayerTableRecord
  2
Dimensions
 70
0
 62
5
  6
Continuous
390
F
  0
ENDTAB
  0
TABLE
  2
STYLE
  5
11A
100
AcDbSymbolTable
  0
STYLE
  5
11B
100
AcDbSymbolTableRecord
100
AcDbTextStyleTableRecord
  2
Standard
  3
txt
 70
0
 71
0
 40
0.000000
 41
0.750000
 42
0.000000
 50
0.000000
  0
ENDTAB
  0
TABLE
  2
VIEW
  5
11C
100
AcDbSymbolTable
 70
0
 40
661.610832
 41
53.200763
  0
ENDTAB
  0
TABLE
  2
UCS
  5
11D
100
AcDbSymbolTable
 70
0
  0
ENDTAB
  0
TABLE
  2
APPID
  5
9
100
AcDbSymbolTable
 70
1
  0
APPID
  5
12
100
AcDbSymbolTableRecord
100
AcDbRegAppTableRecord
  2
ACAD
 70
0
  0
ENDTAB
  0
TABLE
  2
DIMSTYLE
  5
A
100
AcDbSymbolTable
 70
1
 71
0
  0
DIMSTYLE
105
27
100
AcDbSymbolTableRecord
100
AcDbDimStyleTableRecord
 70
0
  2
Standard
176
5
 46
0.000000
177
5
 44
1.250000
 42
0.625000
  6
ClosedFilled
  7
ClosedFilled
 41
2.500000
340
0
178
5
140
2.500000
 77
1
147
0.625000
  0
ENDTAB
  0
TABLE
  2
BLOCK_RECORD
  5
11E
100
AcDbSymbolTable
 70
1
  0
BLOCK_RECORD
  5
11F
100
AcDbSymbolTableRecord
100
AcDbBlockTableRecord
  2
*Model_Space
340
22
  0
BLOCK_RECORD
  5
120
100
AcDbSymbolTableRecord
100
AcDbBlockTableRecord
  2
*Paper_Space
340
1E
  0
BLOCK_RECORD
  5
121
100
AcDbSymbolTableRecord
100
AcDbBlockTableRecord
  2
*Paper_Space0
340
26
  0
BLOCK_RECORD
  5
122
100
AcDbSymbolTableRecord
100
AcDbBlockTableRecord
  2
CHAMBER_COUNTOR
340
26
  0
ENDTAB
  0
ENDSEC
  0
SECTION
  2
BLOCKS
  0
BLOCK
  5
123
100
AcDbEntity
  8
0
100
AcDbBlockBegin
  2
*Model_Space
 70
1
 10
0.000000
 20
0.000000
  3
*Model_Space
  0
ENDBLK
  5
124
100
AcDbEntity
  8
0
100
AcDbBlockEnd
  0
BLOCK
  5
125
100
AcDbEntity
  8
0
100
AcDbBlockBegin
  2
*Paper_Space
 70
1
 10
0.000000
 20
0.000000
  3
*Paper_Space
  0
ENDBLK
  5
126
100
AcDbEntity
  8
0
100
AcDbBlockEnd
  0
BLOCK
  5
127
100
AcDbEntity
  8
0
100
AcDbBlockBegin
  2
*Paper_Space0
 70
1
 10
0.000000
 20
0.000000
  3
*Paper_Space0
  0
ENDBLK
  5
128
100
AcDbEntity
  8
0
100
AcDbBlockEnd
  0
BLOCK
  5
129
100
AcDbEntity
  8
0
100
AcDbBlockBegin
  2
CHAMBER_COUNTOR
 70
1
 10
0.000000
 20
0.000000
  3
CHAMBER_COUNTOR
  0
LINE
  5
12A
100
AcDbEntity
100
AcDbLine
  8
0
 62
256
  6
ByLayer
370
-1
 10
0.000000
 20
38.144077
 30
0.000000
 11
545.100614
 21
38.144077
 31
0.000000
  0
LINE
  5
12B
100
AcDbEntity
100
AcDbLine
  8
0
 62
256
  6
ByLayer
370
-1
 10
0.000000
 20
-38.144077
 30
0.000000
 11
545.100614
 21
-38.144077
 31
0.000000
  0
ARC
  5
12C
100
AcDbEntity
100
AcDbCircle
  8
0
 62
256
  6
ByLayer
370
-1
 10
545.100614
 20
-7.303150
 40
45.447227
100
AcDbArc
 50
45.000000
 51
90.000000
  0
ARC
  5
12D
100
AcDbEntity
100
AcDbCircle
  8
0
 62
256
  6
ByLayer
370
-1
 10
545.100614
 20
7.303150
 40
45.447227
100
AcDbArc
 50
270.000000
 51
315.000000
  0
LINE
  5
12E
100
AcDbEntity
100
AcDbLine
  8
0
 62
256
  6
ByLayer
370
-1
 10
577.236657
 20
24.832892
 30
0.000000
 11
582.941450
 21
19.128099
 31
0.000000
  0
LINE
  5
12F
100
AcDbEntity
100
AcDbLine
  8
0
 62
256
  6
ByLayer
370
-1
 10
577.236657
 20
-24.832892
 30
0.000000
 11
582.941450
 21
-19.128099
 31
0.000000
  0
ARC
  5
130
100
AcDbEntity
100
AcDbCircle
  8
0
 62
256
  6
ByLayer
370
-1
 10
600.000000
 20
36.186649
 40
24.124433
100
AcDbArc
 50
225.000000
 51
270.000000
  0
ARC
  5
131
100
AcDbEntity
100
AcDbCircle
  8
0
 62
256
  6
ByLayer
370
-1
 10
600.000000
 20
-36.186649
 40
24.124433
100
AcDbArc
 50
90.000000
 51
135.000000
  0
DIMENSION
  5
132
100
AcDbEntity
100
AcDbDimension
  8
Dimensions
 70
32
 62
256
  1
D76.2882
 10
-10.000000
 20
38.144077
 11
-12.000000
 21
0.000000
 53
90.000000
100
AcDbAlignedDimension
 13
0.000000
 23
-38.144077
 14
0.000000
 24
38.144077
 50
90.000000
100
AcDbRotatedDimension
  0
DIMENSION
  5
133
100
AcDbEntity
100
AcDbDimension
  8
Dimensions
 70
32
 62
256
  1
D24.1244
 10
671.610832
 20
12.062216
 11
669.610832
 21
0.000000
 53
90.000000
100
AcDbAlignedDimension
 13
600.000000
 23
-12.062216
 14
600.000000
 24
12.062216
 50
90.000000
100
AcDbRotatedDimension
  0
DIMENSION
  5
134
100
AcDbEntity
100
AcDbDimension
  8
Dimensions
 70
32
 62
256
 10
0.000000
 20
-48.144077
 11
272.550307
 21
-45.144077
100
AcDbAlignedDimension
 13
0.000000
 23
-38.144077
 14
545.100614
 24
-38.144077
 50
0.000000
100
AcDbRotatedDimension
  0
DIMENSION
  5
135
100
AcDbEntity
100
AcDbDimension
  8
Dimensions
 70
32
 62
256
 10
0.000000
 20
-58.144077
 11
300.000000
 21
-55.144077
100
AcDbAlignedDimension
 13
0.000000
 23
-38.144077
 14
600.000000
 24
-12.062216
 50
0.000000
100
AcDbRotatedDimension
  0
DIMENSION
  5
136
100
AcDbEntity
100
AcDbDimension
  8
Dimensions
 70
32
 62
256
 10
0.000000
 20
-68.144077
 11
330.805416
 21
-65.144077
100
AcDbAlignedDimension
 13
0.000000
 23
-38.144077
 14
661.610832
 24
-26.600382
 50
0.000000
100
AcDbRotatedDimension
  0
DIMENSION
  5
137
100
AcDbEntity
100
AcDbDimension
  8
Dimensions
 70
4
 62
256
  1
R45.4472
 10
545.100614
 20
-7.303150
 11
542.191394
 21
50.105059
100
AcDbRadialDimension
 15
545.567841
 25
38.141675
  0
DIMENSION
  5
138
100
AcDbEntity
100
AcDbDimension
  8
Dimensions
 70
4
 62
256
  1
R24.1244
 10
600.000000
 20
36.186649
 11
596.180205
 21
5.027879
100
AcDbRadialDimension
 15
599.751985
 25
12.063491
  0
DIMENSION
  5
139
100
AcDbEntity
100
AcDbDimension
  8
Dimensions
 70
2
 62
256
 10
582.941450
 20
0.000000
 11
539.092579
 21
18.624669
100
AcDb2LineAngularDimension
 13
582.941450
 23
19.128099
 14
577.236657
 24
24.832892
 15
577.236657
 25
0.000000
 16
539.092579
 26
18.624669
  0
LWPOLYLINE
  5
13A
100
AcDbEntity
100
AcDbPolyline
  8
0
 62
256
  6
ByLayer
370
-1
 70
0
 43
0.000000
 90
200
 10
600.000000
 20
12.062216
 10
600.003096
 20
12.062217
 10
600.006192
 20
12.062218
 10
600.009288
 20
12.062221
 10
600.012384
 20
12.062224
 10
600.015480
 20
12.062229
 10
600.018576
 20
12.062234
 10
600.021672
 20
12.062241
 10
600.024768
 20
12.062248
 10
600.027864
 20
12.062257
 10
600.030960
 20
12.062266
 10
600.046440
 20
12.062328
 10
600.061920
 20
12.062415
 10
600.077401
 20
12.062527
 10
600.092881
 20
12.062663
 10
600.108361
 20
12.062825
 10
600.123841
 20
12.063011
 10
600.139321
 20
12.063222
 10
600.154801
 20
12.063458
 10
600.170281
 20
12.063719
 10
600.185761
 20
12.064004
 10
600.201241
 20
12.064315
 10
600.216722
 20
12.064650
 10
600.232202
 20
12.065010
 10
600.247682
 20
12.065395
 10
600.263162
 20
12.065805
 10
600.294122
 20
12.066700
 10
600.325082
 20
12.067694
 10
600.356042
 20
12.068787
 10
600.387003
 20
12.069980
 10
600.417963
 20
12.071272
 10
600.448923
 20
12.072664
 10
600.479883
 20
12.074156
 10
600.510844
 20
12.075747
 10
600.541804
 20
12.077439
 10
600.572764
 20
12.079230
 10
600.603724
 20
12.081120
 10
600.634684
 20
12.083111
 10
600.665645
 20
12.085202
 10
600.696605
 20
12.087393
 10
600.727565
 20
12.089684
 10
600.758525
 20
12.092075
 10
600.789486
 20
12.094566
 10
600.820446
 20
12.097158
 10
600.851406
 20
12.099850
 10
600.882366
 20
12.102642
 10
600.913326
 20
12.105536
 10
600.944287
 20
12.108529
 10
600.975247
 20
12.111624
 10
601.006207
 20
12.114820
 10
601.037167
 20
12.118116
 10
601.068127
 20
12.121514
 10
601.099088
 20
12.125012
 10
601.130048
 20
12.128613
 10
601.161008
 20
12.132314
 10
601.191968
 20
12.136117
 10
601.222929
 20
12.140022
 10
601.253889
 20
12.144028
 10
601.284849
 20
12.148136
 10
601.315809
 20
12.152347
 10
601.346769
 20
12.156659
 10
601.377730
 20
12.161074
 10
601.408690
 20
12.165591
 10
601.439650
 20
12.170211
 10
601.470610
 20
12.174934
 10
601.501571
 20
12.179760
 10
601.532531
 20
12.184688
 10
601.563491
 20
12.189720
 10
601.594451
 20
12.194855
 10
601.625411
 20
12.200094
 10
601.656372
 20
12.205436
 10
601.687332
 20
12.210883
 10
601.718292
 20
12.216433
 10
601.749252
 20
12.222088
 10
601.780212
 20
12.227847
 10
601.811173
 20
12.233710
 10
602.293678
 20
12.338774
 10
602.776183
 20
12.469457
 10
603.258688
 20
12.608026
 10
603.741193
 20
12.753074
 10
604.223698
 20
12.901179
 10
604.706203
 20
13.050992
 10
605.188708
 20
13.206156
 10
605.671213
 20
13.360659
 10
606.153718
 20
13.516852
 10
606.636223
 20
13.672545
 10
607.118728
 20
13.831395
 10
607.601233
 20
13.998404
 10
608.083738
 20
14.154295
 10
608.566243
 20
14.318069
 10
609.048748
 20
14.475162
 10
609.531253
 20
14.639666
 10
610.013758
 20
14.798245
 10
610.496263
 20
14.963576
 10
610.978768
 20
15.125617
 10
611.461273
 20
15.284797
 10
611.943778
 20
15.447128
 10
612.426283
 20
15.610739
 10
612.908788
 20
15.770801
 10
613.391293
 20
15.934537
 10
613.873798
 20
16.090518
 10
614.356303
 20
16.251923
 10
614.838808
 20
16.411050
 10
615.321313
 20
16.568939
 10
615.803818
 20
16.727631
 10
616.286323
 20
16.880539
 10
616.768828
 20
17.036547
 10
617.251333
 20
17.194671
 10
617.733838
 20
17.348517
 10
618.216343
 20
17.503125
 10
618.698848
 20
17.650007
 10
619.181353
 20
17.801161
 10
619.663858
 20
17.950819
 10
620.146363
 20
18.097346
 10
620.628868
 20
18.247606
 10
621.111373
 20
18.392857
 10
621.593878
 20
18.537124
 10
622.076383
 20
18.683326
 10
622.558888
 20
18.825373
 10
623.041393
 20
18.966782
 10
623.523898
 20
19.108235
 10
624.006403
 20
19.245643
 10
624.488908
 20
19.388694
 10
624.971413
 20
19.521526
 10
625.453918
 20
19.662467
 10
625.936423
 20
19.791715
 10
626.418928
 20
19.931557
 10
626.901433
 20
20.057087
 10
627.383938
 20
20.189386
 10
627.866443
 20
20.317930
 10
628.348948
 20
20.444931
 10
628.831453
 20
20.577728
 10
629.313958
 20
20.701250
 10
629.796463
 20
20.823202
 10
630.278968
 20
20.945959
 10
630.761473
 20
21.069040
 10
631.243978
 20
21.190229
 10
631.726483
 20
21.308190
 10
632.208988
 20
21.427880
 10
632.691493
 20
21.544748
 10
633.173998
 20
21.660565
 10
633.656503
 20
21.774562
 10
634.139008
 20
21.894328
 10
634.621513
 20
22.003499
 10
635.104018
 20
22.116733
 10
635.586523
 20
22.222495
 10
636.069028
 20
22.337143
 10
636.551533
 20
22.441391
 10
637.034038
 20
22.545573
 10
637.516543
 20
22.655154
 10
637.999048
 20
22.756456
 10
638.481553
 20
22.857616
 10
638.964058
 20
22.962923
 10
639.446563
 20
23.069463
 10
639.929068
 20
23.163115
 10
640.411573
 20
23.263744
 10
640.894078
 20
23.358476
 10
641.376583
 20
23.452773
 10
641.859088
 20
23.552854
 10
642.341593
 20
23.644218
 10
642.824098
 20
23.735877
 10
643.306603
 20
23.833643
 10
643.789108
 20
23.921901
 10
644.271613
 20
24.006511
 10
644.754118
 20
24.102935
 10
645.236623
 20
24.189924
 10
645.719128
 20
24.275174
 10
646.201633
 20
24.360254
 10
646.684138
 20
24.445161
 10
647.166643
 20
24.529898
 10
647.649148
 20
24.615098
 10
648.131653
 20
24.689097
 10
648.614158
 20
24.772364
 10
649.096663
 20
24.857151
 10
649.579168
 20
24.930838
 10
650.061673
 20
25.014395
 10
650.544178
 20
25.088789
 10
651.026683
 20
25.162173
 10
651.509188
 20
25.235499
 10
651.991693
 20
25.308767
 10
652.474198
 20
25.381980
 10
652.956703
 20
25.455146
 10
653.439208
 20
25.529301
 10
653.921713
 20
25.594083
 10
654.404218
 20
25.665686
 10
654.886723
 20
25.730748
 10
655.369228
 20
25.801480
 10
655.851733
 20
25.868581
 10
656.334238
 20
25.932351
 10
656.816743
 20
25.996073
 10
657.299248
 20
26.059911
 10
657.781753
 20
26.123813
 10
658.264258
 20
26.187715
 10
658.746763
 20
26.252347
 10
659.229268
 20
26.314982
 10
659.711773
 20
26.371075
 10
660.194278
 20
26.426718
 10
660.676783
 20
26.491897
 10
661.159288
 20
26.540437
 10
661.610832
 20
26.600386
  0
LWPOLYLINE
  5
13B
100
AcDbEntity
100
AcDbPolyline
  8
0
 62
256
  6
ByLayer
370
-1
 70
0
 43
0.000000
 90
200
 10
600.000000
 20
-12.062216
 10
600.003096
 20
-12.062217
 10
600.006192
 20
-12.062218
 10
600.009288
 20
-12.062221
 10
600.012384
 20
-12.062224
 10
600.015480
 20
-12.062229
 10
600.018576
 20
-12.062234
 10
600.021672
 20
-12.062241
 10
600.024768
 20
-12.062248
 10
600.027864
 20
-12.062257
 10
600.030960
 20
-12.062266
 10
600.046440
 20
-12.062328
 10
600.061920
 20
-12.062415
 10
600.077401
 20
-12.062527
 10
600.092881
 20
-12.062663
 10
600.108361
 20
-12.062825
 10
600.123841
 20
-12.063011
 10
600.139321
 20
-12.063222
 10
600.154801
 20
-12.063458
 10
600.170281
 20
-12.063719
 10
600.185761
 20
-12.064004
 10
600.201241
 20
-12.064315
 10
600.216722
 20
-12.064650
 10
600.232202
 20
-12.065010
 10
600.247682
 20
-12.065395
 10
600.263162
 20
-12.065805
 10
600.294122
 20
-12.066700
 10
600.325082
 20
-12.067694
 10
600.356042
 20
-12.068787
 10
600.387003
 20
-12.069980
 10
600.417963
 20
-12.071272
 10
600.448923
 20
-12.072664
 10
600.479883
 20
-12.074156
 10
600.510844
 20
-12.075747
 10
600.541804
 20
-12.077439
 10
600.572764
 20
-12.079230
 10
600.603724
 20
-12.081120
 10
600.634684
 20
-12.083111
 10
600.665645
 20
-12.085202
 10
600.696605
 20
-12.087393
 10
600.727565
 20
-12.089684
 10
600.758525
 20
-12.092075
 10
600.789486
 20
-12.094566
 10
600.820446
 20
-12.097158
 10
600.851406
 20
-12.099850
 10
600.882366
 20
-12.102642
 10
600.913326
 20
-12.105536
 10
600.944287
 20
-12.108529
 10
600.975247
 20
-12.111624
 10
601.006207
 20
-12.114820
 10
601.037167
 20
-12.118116
 10
601.068127
 20
-12.121514
 10
601.099088
 20
-12.125012
 10
601.130048
 20
-12.128613
 10
601.161008
 20
-12.132314
 10
601.191968
 20
-12.136117
 10
601.222929
 20
-12.140022
 10
601.253889
 20
-12.144028
 10
601.284849
 20
-12.148136
 10
601.315809
 20
-12.152347
 10
601.346769
 20
-12.156659
 10
601.377730
 20
-12.161074
 10
601.408690
 20
-12.165591
 10
601.439650
 20
-12.170211
 10
601.470610
 20
-12.174934
 10
601.501571
 20
-12.179760
 10
601.532531
 20
-12.184688
 10
601.563491
 20
-12.189720
 10
601.594451
 20
-12.194855
 10
601.625411
 20
-12.200094
 10
601.656372
 20
-12.205436
 10
601.687332
 20
-12.210883
 10
601.718292
 20
-12.216433
 10
601.749252
 20
-12.222088
 10
601.780212
 20
-12.227847
 10
601.811173
 20
-12.233710
 10
602.293678
 20
-12.338774
 10
602.776183
 20
-12.469457
 10
603.258688
 20
-12.608026
 10
603.741193
 20
-12.753074
 10
604.223698
 20
-12.901179
 10
604.706203
 20
-13.050992
 10
605.188708
 20
-13.206156
 10
605.671213
 20
-13.360659
 10
606.153718
 20
-13.516852
 10
606.636223
 20
-13.672545
 10
607.118728
 20
-13.831395
 10
607.601233
 20
-13.998404
 10
608.083738
 20
-14.154295
 10
608.566243
 20
-14.318069
 10
609.048748
 20
-14.475162
 10
609.531253
 20
-14.639666
 10
610.013758
 20
-14.798245
 10
610.496263
 20
-14.963576
 10
610.978768
 20
-15.125617
 10
611.461273
 20
-15.284797
 10
611.943778
 20
-15.447128
 10
612.426283
 20
-15.610739
 10
612.908788
 20
-15.770801
 10
613.391293
 20
-15.934537
 10
613.873798
 20
-16.090518
 10
614.356303
 20
-16.251923
 10
614.838808
 20
-16.411050
 10
615.321313
 20
-16.568939
 10
615.803818
 20
-16.727631
 10
616.286323
 20
-16.880539
 10
616.768828
 20
-17.036547
 10
617.251333
 20
-17.194671
 10
617.733838
 20
-17.348517
 10
618.216343
 20
-17.503125
 10
618.698848
 20
-17.650007
 10
619.181353
 20
-17.801161
 10
619.663858
 20
-17.950819
 10
620.146363
 20
-18.097346
 10
620.628868
 20
-18.247606
 10
621.111373
 20
-18.392857
 10
621.593878
 20
-18.537124
 10
622.076383
 20
-18.683326
 10
622.558888
 20
-18.825373
 10
623.041393
 20
-18.966782
 10
623.523898
 20
-19.108235
 10
624.006403
 20
-19.245643
 10
624.488908
 20
-19.388694
 10
624.971413
 20
-19.521526
 10
625.453918
 20
-19.662467
 10
625.936423
 20
-19.791715
 10
626.418928
 20
-19.931557
 10
626.901433
 20
-20.057087
 10
627.383938
 20
-20.189386
 10
627.866443
 20
-20.317930
 10
628.348948
 20
-20.444931
 10
628.831453
 20
-20.577728
 10
629.313958
 20
-20.701250
 10
629.796463
 20
-20.823202
 10
630.278968
 20
-20.945959
 10
630.761473
 20
-21.069040
 10
631.243978
 20
-21.190229
 10
631.726483
 20
-21.308190
 10
632.208988
 20
-21.427880
 10
632.691493
 20
-21.544748
 10
633.173998
 20
-21.660565
 10
633.656503
 20
-21.774562
 10
634.139008
 20
-21.894328
 10
634.621513
 20
-22.003499
 10
635.104018
 20
-22.116733
 10
635.586523
 20
-22.222495
 10
636.069028
 20
-22.337143
 10
636.551533
 20
-22.441391
 10
637.034038
 20
-22.545573
 10
637.516543
 20
-22.655154
 10
637.999048
 20
-22.756456
 10
638.481553
 20
-22.857616
 10
638.964058
 20
-22.962923
 10
639.446563
 20
-23.069463
 10
639.929068
 20
-23.163115
 10
640.411573
 20
-23.263744
 10
640.894078
 20
-23.358476
 10
641.376583
 20
-23.452773
 10
641.859088
 20
-23.552854
 10
642.341593
 20
-23.644218
 10
642.824098
 20
-23.735877
 10
643.306603
 20
-23.833643
 10
643.789108
 20
-23.921901
 10
644.271613
 20
-24.006511
 10
644.754118
 20
-24.102935
 10
645.236623
 20
-24.189924
 10
645.719128
 20
-24.275174
 10
646.201633
 20
-24.360254
 10
646.684138
 20
-24.445161
 10
647.166643
 20
-24.529898
 10
647.649148
 20
-24.615098
 10
648.131653
 20
-24.689097
 10
648.614158
 20
-24.772364
 10
649.096663
 20
-24.857151
 10
649.579168
 20
-24.930838
 10
650.061673
 20
-25.014395
 10
650.544178
 20
-25.088789
 10
651.026683
 20
-25.162173
 10
651.509188
 20
-25.235499
 10
651.991693
 20
-25.308767
 10
652.474198
 20
-25.381980
 10
652.956703
 20
-25.455146
 10
653.439208
 20
-25.529301
 10
653.921713
 20
-25.594083
 10
654.404218
 20
-25.665686
 10
654.886723
 20
-25.730748
 10
655.369228
 20
-25.801480
 10
655.851733
 20
-25.868581
 10
656.334238
 20
-25.932351
 10
656.816743
 20
-25.996073
 10
657.299248
 20
-26.059911
 10
657.781753
 20
-26.123813
 10
658.264258
 20
-26.187715
 10
658.746763
 20
-26.252347
 10
659.229268
 20
-26.314982
 10
659.711773
 20
-26.371075
 10
660.194278
 20
-26.426718
 10
660.676783
 20
-26.491897
 10
661.159288
 20
-26.540437
 10
661.610832
 20
-26.600386
  0
DIMENSION
  5
13C
100
AcDbEntity
100
AcDbDimension
  8
Dimensions
 70
32
 62
256
  1
D53.2008
 10
681.610832
 20
0.000000
 11
679.610832
 21
0.000000
 53
90.000000
100
AcDbAlignedDimension
 13
661.610832
 23
-26.600382
 14
661.610832
 24
26.600382
 50
90.000000
100
AcDbRotatedDimension
  0
LINE
  5
13D
100
AcDbEntity
100
AcDbLine
  8
0
 62
3
  6
CENTER2
370
-1
 10
0.000000
 20
0.000000
 30
0.000000
 11
661.610832
 21
0.000000
 31
0.000000
  0
TEXT
  5
13E
100
AcDbEntity
  8
Dimensions
 62
3
  6
ByLayer
100
AcDbText
 10
0.000000
 20
-76.600382
 40
5.000000
  1
HyRoE project 2kN
 50
0.000000
100
AcDbText
  0
ENDBLK
  5
13F
100
AcDbEntity
  8
0
100
AcDbBlockEnd
  0
ENDSEC
  0
SECTION
  2
ENTITIES
  0
INSERT
  5
140
100
AcDbEntity
100
AcDbBlockReference
  8
0
 62
3
  6
ByLayer
  2
CHAMBER_COUNTOR
 10
0.000000
 20
0.000000
 42
1.000000
 43
1.000000
 44
1.000000
 45
1.000000
  0
ENDSEC
  0
SECTION
  2
OBJECTS
  0
DICTIONARY
  5
C
100
AcDbDictionary
280
0
281
1
  3
ACAD_GROUP
350
D
  3
ACAD_LAYOUT
350
1A
  3
ACAD_MLINESTYLE
350
17
  3
ACAD_PLOTSETTINGS
350
19
  3
ACAD_PLOTSTYLENAME
350
E
  3
AcDbVariableDictionary
350
73
  0
DICTIONARY
  5
D
100
AcDbDictionary
280
0
281
1
  0
ACDBDICTIONARYWDFLT
  5
E
100
AcDbDictionary
281
1
  3
Normal
350
F
100
AcDbDictionaryWithDefault
340
F
  0
ACDBPLACEHOLDER
  5
F
100
AcDbPlaceHolder
  0
DICTIONARY
  5
17
100
AcDbDictionary
280
0
281
1
  3
Standard
350
18
  0
MLINESTYLE
  5
18
100
AcDbMlineStyle
  2
STANDARD
 70
0
  3

 62
256
 51
90.0
 52
90.0
 71
2
 49
0.5
 62
256
  6
BYLAYER
 49
-0.5
 62
256
  6
BYLAYER
  0
DICTIONARY
  5
19
100
AcDbDictionary
280
0
281
1
  0
DICTIONARY
  5
1A
100
AcDbDictionary
281
1
  3
Layout1
350
1E
  3
Layout2
350
26
  3
Model
350
22
  0
ENDSEC
  0
EOF
