700 0 1 0
23 C3D ACIS Converter 18.0 12 ACIS 27.0 NT 24 Thu Dec 11 15:41:42 2025
1 9.9999999999999995e-007 1e-010
-0 body $1 -1 $-1 $3 $-1 $4 #
-1 rgb_color-st-attrib $-1 -1 $2 $-1 $0 0.5647058823529411 0.5647058823529411 0.5647058823529411 #
-2 name_attrib-gen-attrib $-1 -1 $-1 $1 $0 keep keep_kept ignore copy @6 Деталь #
-3 lump $5 -1 $-1 $-1 $6 $0 #
-4 transform $-1 -1 1 0 0 0 1 0 0 0 1 0 0 0 1 no_rotate no_reflect no_shear #
-5 rgb_color-st-attrib $-1 -1 $-1 $-1 $3 0.5647058823529411 0.5647058823529411 0.5647058823529411 #
-6 shell $-1 -1 $-1 $-1 $-1 $7 $-1 $3 #
-7 face $8 -1 $-1 $9 $10 $6 $-1 $11 reversed single #
-8 rgb_color-st-attrib $-1 -1 $-1 $-1 $7 0.5647058823529411 0.5647058823529411 0.5647058823529411 #
-9 face $12 -1 $-1 $13 $14 $6 $-1 $15 forward single #
-10 loop $-1 -1 $-1 $16 $17 $7 #
-11 sphere-surface $-1 -1 $-1 0 0 0 37.144077 0 6.123233995736766E-17 -1 -1 0 0 reverse_v I I I I #
-12 rgb_color-st-attrib $-1 -1 $-1 $-1 $9 0.5647058823529411 0.5647058823529411 0.5647058823529411 #
-13 face $18 -1 $-1 $19 $20 $6 $-1 $21 forward single #
-14 loop $-1 -1 $-1 $22 $23 $9 #
-15 cone-surface $-1 -1 $-1 47.65648226781817 0 0 1 0 0 0 3.061616997868374E-16 -4.999999999999984 1 I I 0 -1 10.85047112586027 forward I I I I #
-16 loop $-1 -1 $-1 $-1 $25 $7 #
-17 coedge $-1 -1 $-1 $17 $17 $33 $26 forward $10 $-1 #
-18 rgb_color-st-attrib $-1 -1 $-1 $-1 $13 0.5647058823529411 0.5647058823529411 0.5647058823529411 #
-19 face $27 -1 $-1 $28 $29 $6 $-1 $30 forward single #
-20 loop $-1 -1 $-1 $31 $32 $13 #
-21 plane-surface $-1 -1 $-1 47.65648226781817 0 0 1 0 0 0 6.123233995736766E-17 -1 forward_v I I I I #
-22 loop $-1 -1 $-1 $-1 $33 $9 #
-23 coedge $-1 -1 $-1 $23 $23 $44 $34 forward $14 $-1 #
-24 plane-surface $-1 -1 $-1 1.504603414242371E-14 0 0 -1 0 0 0 6.123233995736766E-17 -1 forward_v I I I I #
-25 coedge $-1 -1 $-1 $25 $25 $90 $35 reversed $16 $-1 #
-26 edge $-1 -1 $-1 $36 0 $36 6.283185307179586 $17 $37 forward @7 unknown #
-27 rgb_color-st-attrib $-1 -1 $-1 $-1 $19 0.5647058823529411 0.5647058823529411 0.5647058823529411 #
-28 face $38 -1 $-1 $39 $40 $6 $-1 $41 forward single #
-29 loop $-1 -1 $-1 $42 $43 $19 #
-30 cone-surface $-1 -1 $-1 71.8060111419579 0 0 1 0 0 0 5.204748896376241E-16 -8.499999999999982 1 I I 0 -1 24.14952887413973 forward I I I I #
-31 loop $-1 -1 $-1 $-1 $44 $13 #
-32 coedge $-1 -1 $-1 $32 $32 $57 $45 forward $20 $-1 #
-33 coedge $-1 -1 $-1 $33 $33 $17 $26 reversed $22 $-1 #
-34 edge $-1 -1 $-1 $46 0 $46 6.283185307179586 $23 $47 forward @7 unknown #
-35 edge $-1 -1 $-1 $48 0 $48 6.283185307179586 $25 $49 forward @7 unknown #
-36 vertex $-1 -1 $-1 $26 $50 #
-37 ellipse-curve $-1 -1 $-1 36.8060111419579 0 0 1 0 0 0 3.061616997868365E-16 -4.999999999999971 1 I I #
-38 rgb_color-st-attrib $-1 -1 $-1 $-1 $28 0.5647058823529411 0.5647058823529411 0.5647058823529411 #
-39 face $51 -1 $-1 $52 $53 $6 $-1 $54 forward single #
-40 loop $-1 -1 $-1 $55 $56 $28 #
-41 plane-surface $-1 -1 $-1 71.8060111419579 0 0 1 0 0 0 6.123233995736766E-17 -0.9999999999999998 forward_v I I I I #
-42 loop $-1 -1 $-1 $-1 $57 $19 #
-43 coedge $-1 -1 $-1 $43 $43 $69 $58 forward $29 $-1 #
-44 coedge $-1 -1 $-1 $44 $44 $23 $34 reversed $31 $-1 #
-45 edge $-1 -1 $-1 $59 0 $59 6.283185307179586 $32 $60 forward @7 unknown #
-46 vertex $-1 -1 $-1 $34 $61 #
-47 ellipse-curve $-1 -1 $-1 47.65648226781817 0 0 1 0 0 0 3.061616997868373E-16 -4.999999999999984 1 I I #
-48 vertex $-1 -1 $-1 $35 $62 #
-49 ellipse-curve $-1 -1 $-1 1.504603414242371E-14 0 0 1 0 0 0 2.274418750266641E-15 -37.144077 1 I I #
-50 point $-1 -1 $-1 36.8060111419579 3.061616997868369E-16 -4.999999999999977 #
-51 rgb_color-st-attrib $-1 -1 $-1 $-1 $39 0.5647058823529411 0.5647058823529411 0.5647058823529411 #
-52 face $63 -1 $-1 $64 $65 $6 $-1 $66 forward single #
-53 loop $-1 -1 $-1 $67 $68 $39 #
-54 cone-surface $-1 -1 $-1 47.65648226781817 0 0 1 0 0 0 7.347880794884112E-16 -11.99999999999999 1 I I 0 1 24.14952887413973 forward I I I I #
-55 loop $-1 -1 $-1 $-1 $69 $28 #
-56 coedge $-1 -1 $-1 $56 $56 $78 $70 forward $40 $-1 #
-57 coedge $-1 -1 $-1 $57 $57 $32 $45 reversed $42 $-1 #
-58 edge $-1 -1 $-1 $71 0 $71 6.283185307179586 $43 $72 forward @7 unknown #
-59 vertex $-1 -1 $-1 $45 $73 #
-60 ellipse-curve $-1 -1 $-1 47.65648226781817 0 0 1 0 0 0 5.204748896376244E-16 -8.499999999999988 1 I I #
-61 point $-1 -1 $-1 47.65648226781817 3.061616997868374E-16 -4.999999999999984 #
-62 point $-1 -1 $-1 1.137209375133321E-14 2.274418750266641E-15 -37.144077 #
-63 rgb_color-st-attrib $-1 -1 $-1 $-1 $52 0.5647058823529411 0.5647058823529411 0.5647058823529411 #
-64 face $74 -1 $-1 $-1 $75 $6 $-1 $24 forward single #
-65 loop $-1 -1 $-1 $76 $77 $52 #
-66 sphere-surface $-1 -1 $-1 0 0 0 49.14407697925425 0 6.123233995736766E-17 -1 1 0 0 forward_v I I I I #
-67 loop $-1 -1 $-1 $-1 $78 $39 #
-68 coedge $-1 -1 $-1 $68 $68 $85 $79 forward $53 $-1 #
-69 coedge $-1 -1 $-1 $69 $69 $43 $58 reversed $55 $-1 #
-70 edge $-1 -1 $-1 $80 0 $80 6.283185307179586 $56 $81 forward @7 unknown #
-71 vertex $-1 -1 $-1 $58 $82 #
-72 ellipse-curve $-1 -1 $-1 71.8060111419579 0 0 1 0 0 0 5.20474889637624E-16 -8.49999999999998 1 I I #
-73 point $-1 -1 $-1 47.65648226781817 5.204748896376243E-16 -8.499999999999988 #
-74 rgb_color-st-attrib $-1 -1 $-1 $-1 $64 0.5647058823529411 0.5647058823529411 0.5647058823529411 #
-75 loop $-1 -1 $-1 $83 $84 $64 #
-76 loop $-1 -1 $-1 $-1 $85 $52 #
-77 coedge $-1 -1 $-1 $77 $77 $84 $86 forward $65 $-1 #
-78 coedge $-1 -1 $-1 $78 $78 $56 $70 reversed $67 $-1 #
-79 edge $-1 -1 $-1 $87 0 $87 6.283185307179586 $68 $88 forward @7 unknown #
-80 vertex $-1 -1 $-1 $70 $89 #
-81 ellipse-curve $-1 -1 $-1 71.8060111419579 0 0 1 0 0 0 7.34788079488411E-16 -11.99999999999998 1 I I #
-82 point $-1 -1 $-1 71.8060111419579 5.204748896376241E-16 -8.499999999999982 #
-83 loop $-1 -1 $-1 $-1 $90 $64 #
-84 coedge $-1 -1 $-1 $84 $84 $77 $86 reversed $75 $-1 #
-85 coedge $-1 -1 $-1 $85 $85 $68 $79 reversed $76 $-1 #
-86 edge $-1 -1 $-1 $91 0 $91 6.283185307179586 $77 $92 forward @7 unknown #
-87 vertex $-1 -1 $-1 $79 $93 #
-88 ellipse-curve $-1 -1 $-1 47.65648226781817 0 0 1 0 0 0 7.347880794884113E-16 -11.99999999999999 1 I I #
-89 point $-1 -1 $-1 71.8060111419579 7.34788079488411E-16 -11.99999999999998 #
-90 coedge $-1 -1 $-1 $90 $90 $25 $35 forward $83 $-1 #
-91 vertex $-1 -1 $-1 $86 $94 #
-92 ellipse-curve $-1 -1 $-1 1.504603414242371E-14 0 0 1 0 0 0 3.009206828484742E-15 -49.14407697925425 1 I I #
-93 point $-1 -1 $-1 47.65648226781818 7.347880794884104E-16 -11.99999999999998 #
-94 point $-1 -1 $-1 1.504603414242371E-14 3.009206828484742E-15 -49.14407697925425 #
End-of-ACIS-data